<svg width="1785" height="2526" viewBox="0 0 1785 2526" fill="none" xmlns="http://www.w3.org/2000/svg">
<g clip-path="url(#clip0_4544_65383)">
<rect width="1785" height="2526" fill="#D0D0D0"/>
<g filter="url(#filter0_f_4544_65383)">
<ellipse cx="182" cy="1814.5" rx="1253" ry="1218.5" fill="#FCC358"/>
</g>
<g filter="url(#filter1_f_4544_65383)">
<ellipse cx="1478.5" cy="997.5" rx="884.5" ry="859.5" fill="#FF8800"/>
</g>
<path d="M236 962C236 599.149 530.149 305 893 305V305C1255.85 305 1550 599.149 1550 962V2337H236V962Z" stroke="white" stroke-width="3"/>
<path d="M1454 1026C1507.02 1026 1550 983.019 1550 930C1550 983.019 1592.98 1026 1646 1026C1592.98 1026 1550 1068.98 1550 1122C1550 1068.98 1507.02 1026 1454 1026Z" fill="white"/>
<path d="M140 1857C193.019 1857 236 1814.02 236 1761C236 1814.02 278.981 1857 332 1857C278.981 1857 236 1899.98 236 1953C236 1899.98 193.019 1857 140 1857Z" fill="white"/>
<path d="M1502.5 1167.5C1528.73 1167.5 1550 1146.23 1550 1120C1550 1146.23 1571.27 1167.5 1597.5 1167.5C1571.27 1167.5 1550 1188.77 1550 1215C1550 1188.77 1528.73 1167.5 1502.5 1167.5Z" fill="white"/>
<path d="M845 152.5C871.234 152.5 892.5 131.234 892.5 105C892.5 131.234 913.766 152.5 940 152.5C913.766 152.5 892.5 173.766 892.5 200C892.5 173.766 871.234 152.5 845 152.5Z" fill="white"/>
<path d="M472 153C487.464 153 500 140.464 500 125C500 140.464 512.536 153 528 153C512.536 153 500 165.536 500 181C500 165.536 487.464 153 472 153Z" fill="white"/>
<path d="M1257 153C1272.46 153 1285 140.464 1285 125C1285 140.464 1297.54 153 1313 153C1297.54 153 1285 165.536 1285 181C1285 165.536 1272.46 153 1257 153Z" fill="white"/>
<path d="M409 740C432.196 740 451 721.196 451 698C451 721.196 469.804 740 493 740C469.804 740 451 758.804 451 782C451 758.804 432.196 740 409 740Z" fill="white"/>
<path d="M308.997 156.644H299.966C299.811 147.453 298.117 139.15 295.386 132.954C293.95 129.704 292.228 127.023 290.222 125.098C288.228 123.18 285.876 121.997 283.336 122C281.394 122 279.563 122.69 277.917 123.873C276.272 122.69 274.438 121.997 272.498 122C270.556 122 268.725 122.69 267.08 123.873C265.434 122.69 263.6 121.997 261.661 122C259.121 122 256.769 123.18 254.775 125.098C251.772 127.989 249.383 132.565 247.686 138.241C246.098 143.565 245.144 149.864 245.028 156.644H236V159.356H245.031C245.186 168.547 246.88 176.85 249.611 183.046C251.047 186.296 252.769 188.977 254.775 190.902C256.769 192.82 259.121 194.003 261.661 194C263.603 194 265.434 193.31 267.08 192.127C268.725 193.31 270.559 194.003 272.498 194C274.441 194 276.272 193.31 277.917 192.127C279.563 193.31 281.397 194.003 283.336 194C285.876 194 288.228 192.82 290.222 190.902C293.225 188.011 295.613 183.435 297.314 177.759C298.902 172.435 299.856 166.136 299.972 159.356H309V156.644H308.997ZM288.355 127.056C290.843 129.424 293.125 133.632 294.722 139.016C296.226 144.051 297.153 150.107 297.265 156.644H289.125C288.97 147.453 287.276 139.15 284.545 132.954C283.26 130.048 281.745 127.597 280.005 125.733C281.112 125.046 282.221 124.712 283.336 124.712C285.021 124.712 286.691 125.472 288.355 127.059V127.056ZM277.914 188.537C276.493 187.056 275.147 184.973 273.971 182.42C274.581 180.966 275.138 179.41 275.632 177.756C277.22 172.432 278.175 166.133 278.29 159.353H286.424C286.273 168.215 284.615 176.199 282.075 181.945C280.851 184.721 279.424 186.965 277.914 188.537ZM267.074 188.537C264.743 186.11 262.618 182.07 261.106 176.977C259.603 171.943 258.676 165.887 258.563 159.353H266.704C266.855 168.243 268.446 176.29 271.019 182.416C269.844 184.973 268.495 187.056 267.074 188.537ZM267.074 127.457C268.495 128.938 269.841 131.021 271.019 133.574C270.41 135.028 269.853 136.584 269.359 138.238C267.771 143.562 266.816 149.861 266.701 156.641H258.566C258.718 147.779 260.376 139.795 262.915 134.049C264.137 131.273 265.567 129.029 267.074 127.457ZM273.041 139.016C274.544 144.051 275.472 150.107 275.584 156.644H269.404C269.528 149.347 270.674 142.653 272.495 137.308C272.683 137.864 272.868 138.433 273.041 139.02V139.016ZM271.944 176.98C270.441 171.946 269.513 165.89 269.401 159.356H275.581C275.456 166.653 274.311 173.347 272.489 178.692C272.301 178.136 272.117 177.567 271.944 176.98ZM278.281 156.644C278.129 147.754 276.538 139.704 273.965 133.58C275.141 131.024 276.49 128.941 277.911 127.46C280.242 129.886 282.366 133.927 283.879 139.02C285.382 144.054 286.309 150.11 286.421 156.647H278.281V156.644ZM275.823 125.733C274.602 127.041 273.489 128.64 272.492 130.482C271.495 128.64 270.383 127.041 269.162 125.733C270.268 125.046 271.377 124.712 272.492 124.712C273.608 124.712 274.717 125.049 275.823 125.733ZM252.072 134.052C253.402 131.033 254.978 128.64 256.63 127.059C258.294 125.472 259.967 124.715 261.649 124.712C262.764 124.712 263.873 125.049 264.979 125.733C262.267 128.64 260.091 132.963 258.512 138.241C256.924 143.565 255.969 149.864 255.854 156.644H247.72C247.871 147.782 249.529 139.798 252.069 134.052H252.072ZM256.63 188.941C254.142 186.573 251.86 182.365 250.262 176.98C248.759 171.946 247.832 165.89 247.72 159.356H255.86C256.015 168.547 257.709 176.85 260.439 183.046C261.724 185.952 263.24 188.403 264.979 190.267C263.873 190.954 262.764 191.288 261.649 191.288C259.964 191.288 258.294 190.528 256.63 188.941ZM269.159 190.267C270.38 188.959 271.492 187.36 272.489 185.518C273.486 187.36 274.599 188.959 275.82 190.267C274.714 190.954 273.605 191.288 272.489 191.288C271.374 191.288 270.265 190.951 269.159 190.267ZM292.91 181.948C291.58 184.967 290.004 187.36 288.352 188.941C286.688 190.528 285.015 191.285 283.333 191.288C282.218 191.288 281.109 190.951 280.002 190.267C282.715 187.36 284.891 183.037 286.47 177.759C288.058 172.435 289.013 166.136 289.128 159.356H297.262C297.111 168.218 295.453 176.202 292.913 181.948H292.91Z" fill="white"/>
<path d="M493 153H1293" stroke="white" stroke-width="3"/>
<path d="M493 153H1293" stroke="white" stroke-width="3"/>
<path d="M1548.12 156.119H1524.74C1522.45 156.119 1521.31 153.355 1522.93 151.74L1539.46 135.207C1540.19 134.472 1540.19 133.279 1539.46 132.547C1538.72 131.813 1537.53 131.813 1536.8 132.547L1520.26 149.081C1518.65 150.696 1515.88 149.553 1515.88 147.265V123.883C1515.88 122.841 1515.04 122 1514 122C1512.96 122 1512.12 122.841 1512.12 123.883V147.265C1512.12 149.551 1509.36 150.696 1507.74 149.081L1491.21 132.547C1490.47 131.813 1489.28 131.813 1488.54 132.547C1487.81 133.282 1487.81 134.472 1488.54 135.207L1505.08 151.74C1506.69 153.355 1505.55 156.119 1503.27 156.119H1479.88C1478.84 156.119 1478 156.96 1478 158.001C1478 159.043 1478.84 159.884 1479.88 159.884H1503.27C1505.55 159.884 1506.7 162.648 1505.08 164.263L1488.54 180.796C1487.81 181.531 1487.81 182.721 1488.54 183.455C1489.28 184.19 1490.47 184.19 1491.21 183.455L1507.74 166.922C1509.36 165.307 1512.12 166.449 1512.12 168.735V192.117C1512.12 193.156 1512.96 194 1514 194C1515.04 194 1515.88 193.156 1515.88 192.117V168.735C1515.88 166.449 1518.65 165.304 1520.26 166.919L1536.8 183.453C1537.53 184.187 1538.72 184.187 1539.46 183.453C1540.19 182.718 1540.19 181.525 1539.46 180.793L1522.93 164.26C1521.31 162.645 1522.45 159.881 1524.74 159.881H1548.12C1549.16 159.881 1550 159.04 1550 157.999C1550 156.957 1549.16 156.116 1548.12 156.116V156.119Z" fill="white"/>
</g>
<defs>
<filter id="filter0_f_4544_65383" x="-1580" y="87" width="3524" height="3455" filterUnits="userSpaceOnUse" color-interpolation-filters="sRGB">
<feFlood flood-opacity="0" result="BackgroundImageFix"/>
<feBlend mode="normal" in="SourceGraphic" in2="BackgroundImageFix" result="shape"/>
<feGaussianBlur stdDeviation="254.5" result="effect1_foregroundBlur_4544_65383"/>
</filter>
<filter id="filter1_f_4544_65383" x="-15.7209" y="-471.721" width="2988.44" height="2938.44" filterUnits="userSpaceOnUse" color-interpolation-filters="sRGB">
<feFlood flood-opacity="0" result="BackgroundImageFix"/>
<feBlend mode="normal" in="SourceGraphic" in2="BackgroundImageFix" result="shape"/>
<feGaussianBlur stdDeviation="304.86" result="effect1_foregroundBlur_4544_65383"/>
</filter>
<clipPath id="clip0_4544_65383">
<rect width="1785" height="2526" fill="white"/>
</clipPath>
</defs>
</svg>
