<?xml version="1.0" encoding="UTF-8"?>
<svg id="Layer_1" xmlns="http://www.w3.org/2000/svg" version="1.1" viewBox="0 0 458.25 572.72">
  <!-- Generator: Adobe Illustrator 29.0.0, SVG Export Plug-In . SVG Version: 2.1.0 Build 186)  -->
  <path d="M.35,448.32c14.07-8.71,28.57-17.27,43-25.58,17.98-10.36,37.55-17.77,57.62-23.01-.16-5.57-.08-10.23,1.63-15.56,1.45-4.53,3.88-8.65,6.21-12.75-7.93-4-15.74-9.11-22.33-15.06-5.13-4.63-13.1-12.03-15.05-18.62-1.73-13.9-5.75-29.17-6.56-43.06-.46-7.91,3.1-13.31,7.02-19.9,4.9-8.22,11.65-15.96,20.25-20.33.44-.64-2.74-4.1-3.32-4.98-3.59-5.38-9.1-15.79-9.74-22.16-1.29-12.89,3.81-18.86,12-27.61,27.47-29.38,66.84-48.43,106.69-53.69.22-.25-.86-3.15-1.06-3.73-2.71-7.91-10.61-25.1-9.89-32.56,1.46-14.96,22.13-23.91,31.65-12.24.45.55,1.66,3.3,2.33,2.8,1.48-2.84,3.87-5.87,6.04-8.32,19.84-22.39,47.31-30.43,76.72-28.18,9.58.73,18.81,1.12,20.38,12.58,3.13,22.83,4.7,46.11-11.35,64.49-4.67,5.35-10.68,9.35-15.94,14,10.86,3.26,21.59,7.78,31.43,13.41,11.99,6.86,22.44,15.86,31.84,25.93,2.16,2.31,7.58,9.7,9.56,11,2.33,1.52,6.57,2.79,9.37,4.45,8.11,4.81,23.54,17.1,24.48,26.91s.59,20.58,1.05,30.49c.24,5.19.45,10.41.71,15.59.45,9.12,3.86,18.61-4.98,24.76-1.59,1.11-4.13,2.02-5.56,3.29-.2.18-.55,0-.45.63,1.91,2.36,4.03,4.49,5.83,6.95,3.35,4.57,10.74,17.14,11.19,22.48.4,4.83-1.34,7.88-3.12,12.11-6.07,14.46-13.3,28.46-19.2,42.99,24.82,8.44,48.08,21.33,69.11,36.86h.35v18.78h-.35c-25.61-19.56-55.41-33.3-86.12-42.88l29.05-65.41c.26-1.82-2.18-6.68-3.11-8.54-5.03-10.07-12.35-19.01-22.38-24.39l18.75-11.37,1.72-2.18-1.36-20.82c-.48-10.49-.38-21.09-1.03-31.57-.36-5.84.22-8.62-4.08-12.93s-11.73-10.62-16.96-13.52c-2.62-1.45-5.5-2.14-7.92-3.42-3.78-2-14.02-15.38-18.36-19.57-21.51-20.76-48.35-30.96-77.44-36.49,2.84-2.24,6.66-3.48,9.88-5.18,12.02-6.32,26.89-16.59,32.84-29.18,7.03-14.88,3.29-31.99,1.97-47.72-.51-1.35-2.5-1.3-3.81-1.51-30.83-4.93-61.42,4.5-79.81,30.31-4.99,7.01-8.68,15.02-10.34,23.51l-8.85-24.28c-5.58-4.82-14.45,1.65-13.39,8.43l14.8,42.08c-36.11,2.43-71.13,15.69-99.05,38.64-5.93,4.88-21.24,18.77-23.2,25.7-2.83,9.99,7.25,24.44,13.62,31.7,1.06,1.21,5.01,4.3,4.72,5.8s-6.44,3.88-7.96,4.77c-9.28,5.43-14.17,10.06-19.67,19.31-.95,1.61-4.91,8.42-5.18,9.71-.51,2.49.66,8.37,1.03,11.21,1.29,9.78,2.51,21.67,4.66,31.13,1.27,5.59,6.99,10.8,11.23,14.64,10,9.08,21.46,15.03,33.32,21.27.09.37-4.53,4.45-5.31,5.32-5.48,6.14-11,17.42-8.33,25.68.83,2.56,4.12,6.55,5.84,8.87-42.13,12.84-82.74,31.77-117.31,59.19h-.35v-19.49h.35Z" fill="#fdfdfd"/>
  <polygon points="0 448.32 0 0 458.25 0 458.25 432.73 457.89 432.73 457.89 .35 .35 .35 .35 448.32 0 448.32" fill="#def2fa"/>
  <path d="M.35,505.74v6.02c0,20.2,0,40.41,0,60.61,45.36,0,90.74,0,136.09,0,.47,0,.95,0,1.42,0v.35H0v-104.9h.35v37.92Z" fill="#e8f1d3"/>
  <path d="M458.25,451.51v121.21h-109.87v-.35c.24,0,.47,0,.71,0,36.26,0,72.54,0,108.8,0,0-13.46-.01-26.94,0-40.4,0-.94,0-1.89,0-2.84.02-25.87-.01-51.75,0-77.61h.35Z" fill="#e8f1d3"/>
  <path d="M252.29,524.42h53.88c18.35,0,36.72,0,55.08,0v.3h-177.8v-.3c22.94,0,45.9,0,68.85,0Z" fill="#dbe2c6"/>
  <path d="M.35,448.32V.35h457.54v432.38c-21.03-15.53-44.29-28.42-69.11-36.86,5.9-14.54,13.13-28.54,19.2-42.99,1.78-4.23,3.52-7.28,3.12-12.11-.45-5.34-7.84-17.91-11.19-22.48-1.81-2.46-3.92-4.59-5.83-6.95-.1-.63.25-.46.45-.63,1.43-1.26,3.96-2.18,5.56-3.29,8.84-6.15,5.43-15.64,4.98-24.76-.26-5.18-.47-10.4-.71-15.59-.46-9.91-.11-20.72-1.05-30.49s-16.37-22.1-24.48-26.91c-2.8-1.66-7.04-2.94-9.37-4.45-1.98-1.29-7.4-8.68-9.56-11-9.4-10.07-19.85-19.06-31.84-25.93-9.84-5.63-20.57-10.15-31.43-13.41,5.25-4.66,11.27-8.65,15.94-14,16.04-18.38,14.48-41.66,11.35-64.49-1.57-11.46-10.8-11.85-20.38-12.58-29.41-2.25-56.87,5.79-76.72,28.18-2.17,2.45-4.56,5.48-6.04,8.32-.67.5-1.88-2.25-2.33-2.8-9.52-11.67-30.19-2.72-31.65,12.24-.73,7.46,7.18,24.64,9.89,32.56.2.58,1.28,3.48,1.06,3.73-39.85,5.26-79.21,24.31-106.69,53.69-8.18,8.75-13.29,14.72-12,27.61.64,6.37,6.15,16.79,9.74,22.16.58.88,3.76,4.34,3.32,4.98-8.6,4.37-15.35,12.11-20.25,20.33-3.93,6.59-7.48,12-7.02,19.9.81,13.89,4.83,29.16,6.56,43.06,1.95,6.58,9.93,13.99,15.05,18.62,6.6,5.95,14.4,11.07,22.33,15.06-2.33,4.1-4.75,8.22-6.21,12.75-1.71,5.33-1.79,9.99-1.63,15.56-20.06,5.24-39.64,12.65-57.62,23.01-14.43,8.31-28.93,16.87-43,25.58Z" fill="#c0e7f6"/>
  <path d="M126.88,419.97c-12.77,4.04-25.77,7.79-37.45,14.47-41.25,23.6-5.93,43.44,21.43,52.06,40.39,12.72,90.95,15.22,133.14,13.91,39.6-1.23,85.46-5.65,122.81-19.31,13.55-4.95,46.49-19.31,35.02-38.55-7.24-12.15-31.02-20.27-44.16-23.89-2.44-.67-5.41-.91-7.52-2.23,6.27-1.33,18.16-2.2,21.62-7.8,30.71,9.59,60.51,23.32,86.12,42.88-.01,25.87.02,51.75,0,77.61-3.57.76-7,2.6-10.45,3.9-6.08,2.31-12.48,4.53-18.7,6.47-36.43,11.34-73.63,21.37-111.13,28.5l-34.45,4.36h-63.79l-36.28-3.23c-40.51-4.81-80.89-12.99-118.48-28.95-22.44-9.53-43.65-21.52-64.26-34.44v-37.92c34.57-27.42,75.18-46.35,117.31-59.19,2.8,3.77,6.08,7.85,9.21,11.34ZM62.73,447.26c-4.82.11-9.27,6.75-10.94,10.86-8.26,20.3,11.48,36.09,29.9,38.04,6.63.7,13.38.43,20.02,1.06l-7.52-1.87c-9.87-5.72-27.21-10.92-33.74-20.49-5.7-8.35-1.47-19.31,2.27-27.61ZM423.51,467.82c-4.13,2.16-8.09,4.61-12.27,6.68-14.39,7.1-33.28,13.74-48.59,19.1-56.38,19.74-114.32,22.84-173.56,19.92-16.54-.81-33.17-1.59-49.52-4.35-5.4-.91-13.26-3.55-18.2-3.79-3.12-.15-3.28,2.18-1.23,4.09,9.3,8.67,39.53,11.53,52.29,12.57,60.88,4.95,122.36,2.07,180.92-16.12,25.25-7.84,46.95-19.01,67.52-35.61.48-.39.63-.97.87-1.17.43-.36,1.58-.57,1.78-1.31ZM336.68,531.61c-37.03,6.01-74.66,7.93-112.18,8.84s-76.05-2.96-113.29-11.43c-24.17-5.5-64.1-17.94-80.56-37.1-1.59-1.85-3.57-6.69-6.19-5.49-3.43,1.57.55,8.36,1.97,10.42,16.39,23.92,67.05,37.95,94.35,43.51,43.51,8.86,85.38,11.24,129.56,6.08,27.54-3.21,54.87-8.51,82.09-13.6l4.25-1.24ZM413.59,501.13c-9.43,2.72-18.4,6.71-27.55,10.19-11.21,4.26-23.32,7.15-32.7,14.96,2.57-.23,5.07.48,7.64.37,13.4-.56,41.56-14.45,51.36-23.77.28-.27,1.65-1.4,1.25-1.76ZM352.99,526.3h-1.06v.35h1.06v-.35Z" fill="#d7e7ac"/>
  <path d="M117.66,408.63c-1.72-2.32-5.01-6.31-5.84-8.87-2.67-8.26,2.85-19.54,8.33-25.68.77-.87,5.39-4.94,5.31-5.32-11.86-6.24-23.32-12.19-33.32-21.27-4.24-3.84-9.96-9.05-11.23-14.64-2.15-9.46-3.37-21.36-4.66-31.13-.37-2.84-1.54-8.72-1.03-11.21.26-1.29,4.22-8.1,5.18-9.71,5.5-9.26,10.39-13.89,19.67-19.31,1.52-.89,7.67-3.32,7.96-4.77s-3.66-4.59-4.72-5.8c-6.37-7.27-16.45-21.71-13.62-31.7,1.96-6.94,17.27-20.83,23.2-25.7,27.91-22.95,62.94-36.21,99.05-38.64l-14.8-42.08c-1.06-6.77,7.81-13.25,13.39-8.43l8.85,24.28c1.66-8.49,5.35-16.5,10.34-23.51,18.38-25.81,48.98-35.25,79.81-30.31,1.31.21,3.29.16,3.81,1.51,1.32,15.73,5.06,32.84-1.97,47.72-5.95,12.59-20.82,22.86-32.84,29.18-3.22,1.69-7.04,2.94-9.88,5.18,29.09,5.53,55.93,15.73,77.44,36.49,4.34,4.19,14.58,17.57,18.36,19.57,2.42,1.28,5.3,1.97,7.92,3.42,5.23,2.9,12.69,9.24,16.96,13.52s3.72,7.09,4.08,12.93c.65,10.49.55,21.08,1.03,31.57l1.36,20.82-1.72,2.18-18.75,11.37c10.03,5.38,17.35,14.32,22.38,24.39.93,1.87,3.37,6.72,3.11,8.54l-29.05,65.41c-3.45,5.6-15.35,6.47-21.62,7.8-3.99.85-13.98,2.07-16.99,3.75-2.65,1.48-9.09,10.64-11.89,13.62-13.28,14.17-31.77,27.56-51.14,31.43-23.71,4.74-45.27-4.63-68.65-3.44-4.63.24-11.18,1.85-15.56,1.37-3.5-.38-10.3-4.7-13.57-6.63-16.25-9.6-32.86-22.5-45.48-36.56-3.13-3.49-6.42-7.57-9.21-11.34ZM307.27,80.45c-.07-.53.19-1.17-.33-1.62-.46-.31-2.34-.19-3.03-.15-11.19.64-26.34,2.26-36.95,5.57-20.95,6.54-40.36,27.16-44.22,48.99-.47,2.67-1.28,6.21.54,8.52.22,2.83,1.45,5.45,2.13,8.15.73,2.94,1.11,5.99,2.13,8.86l3.54-7.09c3.51-6.02,11.59-13.06,12.06-20.01.27-3.88-1.05-7.93,0-11.88l.7,3.37.72,9.74,10.55-11.6,3.98-17.46c.99-.22.76.49.7,1.23-.38,4.27-2.26,8.66-2.3,12.94,4.61-3.85,9.66-7.75,14.01-11.87,5.78-5.47,6.51-9.69,10.83-15.4.22-.3,2.89-3.59,2.99-2.32-1,2.92-2.96,5.57-4.44,8.32-.27.51-1.07,1.6-.7,2.14,5.58-3.86,11.04-8.01,17.36-10.64l-20.37,17.38.18.7c5.57-.2,11.53-2.5,17.02-2.83.73-.04,1.86-.37,1.59.7l-17.44,2.94c-6.23,1.63-10.58,7.08-15.17,11.23,4.45-.19,9.28-1.86,13.65-2.12.7-.04.55.07.52.7l-16.27,3.75-5.35,4.93-8.79,9.63.13.83,18.07-4.26.15,1.03c-5.73,2.02-12.54,2.67-18.2,4.66-4.75,1.67-8.78,10.04-11.54,14.15-.13.19-.9.47-1,.93l-5.73,8.99c6.81-.14,13.88-1.44,20.49-3.07,20.54-5.05,51.01-19.3,57.84-41.04,2.94-9.35,1.86-15.02,1.05-24.29-.37-4.24-.52-8.52-1.06-12.76ZM276.61,106.32v.35c.23-.12.23-.24,0-.35ZM207.33,107.03c-2.79-.31-6.05.44-6.73,3.54,2.83.4,5.21-1.32,6.73-3.54ZM206.97,113.41c-.64.35-4.11,1.05-4.23,1.62.49,1.65,1.32,3.25,2.1,4.76l15.95,46.78c.02.12-.02.24,0,.35.03.22-.02.48,0,.71l5.75,21.01c.35,1.16,2.51,1.19,3.47.96.27-.06.78-.46.89-.71l.1-1.13-21.73-75.77c-.57-.86-2.08,1.29-2.3,1.42ZM96.75,230.36c8.07,17.94,21.03,25.75,37.92,34.38,17.15,8.76,33.56,12.27,52.45,15.24,33.81,5.32,65.38,4.33,98.6-4.35,30.35-7.93,57.92-23.02,82.79-41.78l-.12-1.35c-3.06-3.84-6.28-7.55-9.38-11.35-20.98-25.69-32.31-35.68-63.79-47.84-11.7-4.52-32.78-10.28-45.2-9.58-6.68.38-13.26,2.69-20.01,2.14-.03,1.75-.31,3.58,1.62,4.23,6.87,2.32,16.72,2.19,23.9,4.28l.53,1.07c-2.43-.29-4.81-.62-7.26-.71l-17.18-2.84c-.75.03.45,2.57.53,2.84.21.79.56,1.81.71,2.48.48,2.13,1.61,11.09,3.05,12.01,1.61,1.03,5.51.11,7.39.02,3.08-.14,4.55-.11,7.63-.69,4.69-.89,13.88-3.08,18.07-4.96.82-.37,4.38-2.92,4.78-2.84,1.63,2.06-1.48,4.89-3,6.21-8.14,7.04-22.56,7.9-32.96,7.97-13.14.09-37.75-2.39-49.15-8.8-1.31-.74-7.58-4.94-7.87-5.99s.55-1.38.66-1.87c2.51,1.18,4.58,3.06,7.09,4.25,6.64,3.16,26.48,6.86,33.84,6.74,1.31-.02-.5-1.68-.53-1.78-.99-3.39-1.67-6.85-2.84-10.28-.54-1.59-.55-2.26-1.42-3.9-.22-.42-.3-1.14-.53-1.42-.71-.85-5.65.03-6.92.35-3.53.03-9.93.6-13.47,1.06,1.08-1.56,3.17-1.67,4.89-2.02,4.79-.97,10.1-1.39,14.96-1.88.39-.36-1.5-4.59-1.77-5.31-.18-.5.25-1.48-.71-1.95-.96-.3-2.02-.21-3.01-.17-41.07,1.75-84.8,23.9-112.35,53.86-.91.99-5,5.39-5.14,6.22-.28,1.62,2.4,6.55,3.19,8.31ZM366.1,244.89l-30.83,20.2c11.06-4.82,22.22-9.71,32.96-15.24,3.88-2,7.28-4.18,10.99-6.38.55-.33,1.6-.54,2.36-1s5.41-3.13,5.46-3.45c.09-.57-.23-.85-.54-1.24-1.31-1.67-3.7-3.22-5.16-4.59-2.94-2.75-5.75-5.74-9.04-8.14.44,2.59,6.1,8.45,5.44,10.72-.51,1.75-9.98,7.27-11.64,9.12ZM370,253.05c-4.23,2.29-9.42,4.76-13.82,6.73-26.5,11.89-54.86,20.23-83.28,26.41-47.07,10.22-113.55,4.4-154.52-22.51-.84-.55-4.4-3.69-5.1-3.52-.88.95-1.75,2.33-2.1,3.58-1.77,6.37-2.89,17.08-3.73,23.91-.26,2.08-1.14,6.55-.6,8.3.21.69.94,1.26,1.45,1.74,3.05,2.91,9.58,7.09,13.31,9.37s7.88,4.48,12.02,6.23c2.18,1.89,7.29,3.78,10.18,4.88,15.34,5.85,31.71,8.7,47.94,10.72,3.72.79,7.71,1.41,11.52,1.77,51.51,4.84,111.56-3.95,159.3-23.39,4.93-2.01,9.13-3.33,14.06-5.96,2.69-1.44,9.05-4.8,11.08-6.64.61-.55.93-.91,1.06-1.77.77-4.92-.23-12.58-.35-17.68-.24-10.72-.38-21.42-1.05-32.09-6.11,2.63-11.53,6.77-17.36,9.92ZM85.06,298.06c7.88,8.88,17.19,12.89,28,17.01,6.29,2.4,12.61,5.14,19.42,5.92.39.04,1.21.41,1.13-.25-9.84-4.96-19.17-11.05-27.64-18.08-1.33-1.11-3.23-2.35-4.25-3.72-2.9-3.9-.63-6.99-.35-11.16,1.19-5.16,2.23-10.39,3.19-15.59.43-2.33.94-4.65,1.36-6.97.09-.47.07-.64-.47-.47-1.14.36-4.41,2.2-5.61,2.9-5.25,3.09-10.6,7.82-14.21,12.72-1.32,1.79-5.46,8.15-5.55,10.08-.08,1.8,3.68,6.14,4.99,7.61ZM95.34,343.06c18.32,15.23,35.89,21.96,58.83,27.64,38.02,9.42,73.07,7.51,111.36.6,14.89-2.69,30.09-6.03,44.41-10.88,3.17-1.07,22.78-8.2,23.92-9.58,5.97-2.28,12.34-4.69,17.96-7.74,2.36-1.28,10.65-6.16,11.55-8.3.49-1.18.79-5.56.97-7.18.48-4.28.62-8.65,1.06-12.93-5.31,1.27-10.4,3.74-15.6,5.5-.35.12-.6.49-.7.53-52.8,17.59-110.81,21.14-165.86,14.18-1.41-.18-2.66-.1-4.25-.35-8.33-1.33-16.56-2.7-24.94-3.94-21.23-3.16-49.22-9.72-65.95-23.71-1.65-1.38-4.68-5.17-6.02-6.03-.44-.28-.7-.44-1.25-.34,2.25,10.42,3.36,21.78,6.07,32.03,1.61,6.11,4.03,6.81,8.46,10.5ZM372.13,317.9c-.53,5.55-.3,13.48-1.44,18.58-.17.75-.46,1.32-.88,1.95-1.69,2.54-11.96,7.93-15.15,9.65-14.32,7.72-29.4,14.09-44.89,19.08-.26,1.09.79.73,1.5.61,18.04-2.96,39.58-10.5,56.62-17.27,5.81-2.31,11.69-4.83,17.37-7.44,2.58-1.19,5-2.78,7.77-3.57.64-.92-3.5-6.27-4.22-7.41-3.11-4.91-5.36-8.67-9.92-12.59-.99-.85-5.26-4.13-6.21-4.42s-.46,2.18-.52,2.83ZM384.53,348.38c-11.96,5.19-27.34,11.21-39.69,15.24-15.79,5.15-34.89,9-51.39,10.99-6.38.77-12.91.94-19.27,1.82-8.63,1.19-17.2,3.44-25.96,4.52-20.04,2.48-42.45,3.69-62.51,1.82-18.02-1.68-36.02-5.52-52.99-11.69-.03,2.48,1.54,5.14,2.31,7.44.4,1.21.61,2.6,1.06,3.9,1.36,3.87,3.48,10.6,5.36,13.96.62,1.11.9,1.57,2.08,2.17,4.02,2.06,11.2,4.17,15.68,5.58,17.79,5.61,36.34,8.35,54.85,10.54,37.51,4.44,75.5,4.72,113.06,0,10.5-1.32,25.88-4.76,36.15-7.62,3.83-1.06,3.98-1.75,5.74-5.25,1.03-2.05,1.88-4.28,2.83-6.39,7.6-16.83,14.42-34.07,21.55-51.1-3.1.8-5.98,2.83-8.85,4.08ZM120.5,399.06c3.64,2.05,7.43,4,11.34,5.67,10.76,4.6,22.44,6.36,34.02,7.8.17-.92-.17-.62-.7-.87-7.73-3.58-17.07-5.42-24.9-8.78-.7-.3-1.95-.84-2.47-1.33-.71-.66-4.61-10.04-5.23-11.7-1.17-3.13-2.55-7.11-3.54-10.28-.56-1.79-.47-4.3-1.59-6.02-4.46,4.5-8.25,10.08-10,16.22-.4,1.39-1.31,4.6-1.16,5.89.26,2.17,2.8,2.59,4.25,3.4ZM183.23,455.41c2.47,1.28,1.55,1.59,4.96,1.77,10.3.54,21.02-.96,31.38-.37,3.88.22,7.98.95,11.86,1.43,12.5,1.56,22.64,3.83,35.51,1.67,22.95-3.85,42.53-20.74,56.98-38l-30.48,2.31c-32.07,1.77-63.21-2.24-94.98-5.32-1.19-.11-2.35-.26-3.54-.35-2.94-.24-4.49,0-7.25.01-22.04.19-43.73-2.45-63.98-11.35-.33.31,2.13,3.27,2.49,3.71,15.12,18.26,36.05,33.66,57.05,44.49Z" fill="#722016"/>
  <path d="M136.45,572.37c-45.36,0-90.74,0-136.09,0,0-20.2,0-40.41,0-60.61,8.87,7.03,17.97,13.79,27.67,19.64,26.29,15.85,56.02,27.72,85.73,35.47,7.53,1.97,15.19,3.41,22.69,5.49Z" fill="#d7e7ac"/>
  <path d="M219.38,572.37c-27.16,0-54.35,0-81.51,0-.47,0-.95,0-1.42,0-7.5-2.08-15.16-3.52-22.69-5.49-29.72-7.76-59.44-19.62-85.73-35.47-9.71-5.85-18.8-12.61-27.67-19.64v-6.02c20.61,12.92,41.82,24.91,64.26,34.44,37.59,15.96,77.97,24.14,118.48,28.95l36.28,3.23Z" fill="#b4c48f"/>
  <path d="M457.89,531.96c-.01,13.46,0,26.94,0,40.4-36.26,0-72.54,0-108.8,0,24.75-6.09,48.77-13.24,72.18-23.33,11.4-4.91,22.6-10.33,33.65-15.97.86-.44,2-.99,2.97-1.11Z" fill="#d7e7ac"/>
  <path d="M457.89,529.13c0,.94,0,1.89,0,2.84-.97.12-2.1.67-2.97,1.11-11.05,5.63-22.25,11.05-33.65,15.97-23.41,10.09-47.43,17.24-72.18,23.33-.24,0-.47,0-.71,0-21.73,0-43.48,0-65.21,0l34.45-4.36c37.5-7.14,74.71-17.16,111.13-28.5,6.21-1.93,12.61-4.16,18.7-6.47,3.45-1.31,6.88-3.15,10.45-3.9Z" fill="#b4c48f"/>
  <path d="M350.15,416.43c2.11,1.32,5.07,1.56,7.52,2.23,13.13,3.62,36.91,11.74,44.16,23.89,11.47,19.24-21.47,33.6-35.02,38.55-37.35,13.65-83.21,18.08-122.81,19.31-42.19,1.31-92.76-1.18-133.14-13.91-27.35-8.62-62.68-28.46-21.43-52.06,11.69-6.68,24.68-10.43,37.45-14.47,12.62,14.07,29.23,26.96,45.48,36.56,3.27,1.93,10.06,6.25,13.57,6.63,4.38.48,10.93-1.14,15.56-1.37,23.38-1.19,44.93,8.17,68.65,3.44,19.37-3.87,37.86-17.26,51.14-31.43,2.8-2.99,9.24-12.15,11.89-13.62,3.01-1.68,12.99-2.9,16.99-3.75ZM303.37,477.03c-20.88,1.9-41.97,1.99-62.92,1.43-29.45-.79-65.75-.45-94.08-7.98-5.18-1.38-19.57-5.83-21.11-11.52-.81-3.01,4.47-6.13,6.94-6.9,1.68-.53,8.26-.8,6.9-3.72-.71-1.54-5.15-2.07-6.74-2.13-11.84-.44-21.74,9.99-13.28,20.72,9.34,11.85,40.98,16.38,55.46,17.9,31.08,3.28,60.92.02,91.79-3.19,11.94-1.24,23.84-2.85,35.81-3.89l1.23-.71ZM314.71,477.03c8.56.42,16.27,2.58,24.81.53,8.3-2,22.24-8.23,27.09-15.44s-2.59-11.19-8.66-13.44l4.25,4.08c2.93,3.4-.87,5.4-3.57,7.06-11.85,7.28-26.75,8.96-38.89,16.04l-5.02,1.17ZM305.14,477.03h-1.06v.35h1.06v-.35Z" fill="#c3d39c"/>
  <path d="M423.51,467.82c-.19.74-1.35.95-1.78,1.31-.24.2-.4.79-.87,1.17-20.57,16.6-42.27,27.77-67.52,35.61-58.56,18.19-120.04,21.07-180.92,16.12-12.76-1.04-42.98-3.9-52.29-12.57-2.05-1.91-1.89-4.24,1.23-4.09,4.95.24,12.8,2.88,18.2,3.79,16.35,2.76,32.98,3.54,49.52,4.35,59.23,2.91,117.18-.18,173.56-19.92,15.32-5.36,34.21-12,48.59-19.1,4.19-2.07,8.15-4.53,12.27-6.68Z" fill="#b4c48f"/>
  <path d="M336.68,531.61l-4.25,1.24c-27.22,5.08-54.55,10.38-82.09,13.6-44.19,5.15-86.06,2.78-129.56-6.08-27.3-5.56-77.96-19.6-94.35-43.51-1.41-2.06-5.4-8.85-1.97-10.42,2.62-1.2,4.6,3.64,6.19,5.49,16.45,19.16,56.39,31.61,80.56,37.1,37.25,8.47,75.11,12.35,113.29,11.43s75.15-2.83,112.18-8.84Z" fill="#b4c48f"/>
  <path d="M62.73,447.26c-3.74,8.29-7.97,19.26-2.27,27.61,6.53,9.56,23.87,14.77,33.74,20.49l7.52,1.87c-6.64-.63-13.39-.36-20.02-1.06-18.42-1.95-38.16-17.74-29.9-38.04,1.67-4.1,6.12-10.75,10.94-10.86Z" fill="#b4c48f"/>
  <path d="M413.59,501.13c.4.36-.96,1.49-1.25,1.76-9.8,9.32-37.96,23.21-51.36,23.77-2.57.11-5.06-.6-7.64-.37,9.38-7.81,21.49-10.7,32.7-14.96,9.14-3.48,18.12-7.47,27.55-10.19Z" fill="#b4c48f"/>
  <rect x="351.93" y="526.3" width="1.06" height=".35" fill="#b4c48f"/>
  <path d="M295.22,173.3c.35,2.34,2.54,3.48,3.89,5.15,7.51,9.31,14.98,25.32,13.79,37.51-.39,3.99-1.17,4.37-4.32,6.31-11.64,7.16-28.93,14.6-41.72,19.95-38.27,16.02-77.79,22.27-119.23,22.53-4.32.03-8.64-.05-12.95-.01-16.89-8.63-29.85-16.44-37.92-34.38.77.05,1.29-1.05,1.76-1.61,19.48-23.44,47.03-38.51,74.71-50.43,1.52-.17,1.79,2.45,2.51,3.72,6.66,11.75,31.66,20.51,44.54,21.38,8.68.59,28.05-1.99,35.96-5.5.57-.26,4.51-1.6,3.21-2.48l-10.83.55-10.79-1.08c10.4-.07,24.82-.93,32.96-7.97,1.52-1.32,4.63-4.15,3-6.21-.4-.08-3.95,2.47-4.78,2.84.14-4.07.42-6.87-3.28-9.3-3.03-1.99-7.16-1.79-10.19.09-7.18-2.08-17.03-1.96-23.9-4.28-1.93-.65-1.65-2.48-1.62-4.23,6.75.55,13.33-1.76,20.01-2.14,12.42-.7,33.5,5.06,45.2,9.58ZM275.02,194.57c2.12.49,2.41.89,4.49.06,6.33-2.52.84-7.78-3.42-2.35-.52.66-1.19,1.38-1.08,2.29Z" fill="#e5553f"/>
  <path d="M191.73,328.89c-16.23-2.01-32.6-4.86-47.94-10.72-2.89-1.1-8-2.99-10.18-4.88-6.34-5.5-15.08-12.5-17.82-20.63-3.18-9.45,1.06-19.57,2.58-28.98,40.98,26.91,107.46,32.73,154.52,22.51,28.42-6.17,56.78-14.52,83.28-26.41-.75,5.67-1.16,11.85-2.23,17.44-.52,2.7-1.08,3.93-3.56,5.3-19.42,10.76-43.24,17.35-64.66,23.23-31.12,8.54-62.96,14.28-93.99,23.14Z" fill="#e5553f"/>
  <path d="M295.22,173.3c31.48,12.16,42.81,22.15,63.79,47.84-9.58,8.34-20.95,15.23-32.25,21.09-33.59,17.43-71.79,27.24-109.09,33.38-10.16,1.67-20.59,1.71-30.55,4.36-18.89-2.97-35.3-6.48-52.45-15.24,4.31-.04,8.63.04,12.95.01,41.44-.26,80.97-6.51,119.23-22.53,12.78-5.35,30.08-12.79,41.72-19.95,3.15-1.94,3.93-2.32,4.32-6.31,1.19-12.19-6.28-28.2-13.79-37.51-1.35-1.67-3.54-2.81-3.89-5.15Z" fill="#d93c27"/>
  <path d="M178.97,334.56c1.59.25,2.84.18,4.25.35-.05.34-.94.82-.53,1.06.9.53,3.6,1.23,4.78,1.59,28.38,8.66,59.81,9.26,89.18,6.6.43-.04,1.29-.25,1.55.13-4.59,2.09-9.54,3.85-14.35,5.5-34.73,11.93-70.93,19.42-107.76,20.53-.67.02-1.34-.03-1.93.37-22.94-5.69-40.51-12.41-58.83-27.64l-4.25-28,9.68,6.08c15.12,8.27,35.7,12.77,52.87,13.76,7.15.41,16.72.85,23.76.38.66-.04,1.33.09,1.58-.73Z" fill="#e5553f"/>
  <path d="M349.09,320.74c-1.42,5.54-2.41,10.86-5.13,15.96-2,3.76-4.46,6.36-7.06,9.6-1.08,1.35-2.13,3.47-3.05,4.57-1.14,1.38-20.75,8.5-23.92,9.58-14.33,4.85-29.52,8.19-44.41,10.88-38.29,6.9-73.34,8.82-111.36-.6.59-.4,1.26-.35,1.93-.37,36.84-1.12,73.04-8.61,107.76-20.53,4.81-1.65,9.75-3.41,14.35-5.5-.26-.38-1.12-.17-1.55-.13-29.36,2.66-60.8,2.06-89.18-6.6-1.18-.36-3.88-1.06-4.78-1.59-.42-.25.48-.72.53-1.06,55.05,6.96,113.07,3.42,165.86-14.18Z" fill="#d73c27"/>
  <path d="M370,253.05c.59.37.35,1.35.36,1.94.13,12.73.22,24.4-2.87,36.84-1.31,5.27-3.49,10.25-4.94,15.44-47.75,19.44-107.8,28.23-159.3,23.39-3.81-.36-7.8-.98-11.52-1.77,31.03-8.86,62.87-14.59,93.99-23.14,21.42-5.88,45.24-12.47,64.66-23.23,2.48-1.37,3.04-2.6,3.56-5.3,1.07-5.59,1.48-11.77,2.23-17.44,4.4-1.98,9.59-4.45,13.82-6.73Z" fill="#d93c27"/>
  <path d="M344.84,363.62c-4.02,4.76-7.86,9.72-12.43,13.97-22.98,9.61-47.09,17.08-71.13,23.85-15.72,4.43-31.77,7.95-47.21,13.21-18.51-2.19-37.06-4.93-54.85-10.54-4.48-1.41-11.66-3.53-15.68-5.58-1.18-.61-1.46-1.06-2.08-2.17-1.88-3.36-4-10.09-5.36-13.96,3.36,1.48,6.99,2.27,10.57,3.08,26.38,5.96,53.92,4.79,80.65,1.84,19.82-2.19,41.83-5.03,60.9-10.69,1.72-.51,3.61-1.27,5.24-2.03,16.5-1.99,35.6-5.84,51.39-10.99Z" fill="#e5553f"/>
  <path d="M384.53,348.38c-5.76,11.27-12.78,22.5-20.27,32.72-6.48,8.85-12.64,14.92-21.44,21.44-4.19,3.1-10.94,6.69-14.45,10-.65.61-1.4,1.05-1.25,2.11-37.56,4.72-75.54,4.44-113.06,0,15.44-5.27,31.49-8.79,47.21-13.21,24.04-6.77,48.15-14.25,71.13-23.85,4.57-4.25,8.42-9.21,12.43-13.97,12.36-4.03,27.73-10.04,39.69-15.24Z" fill="#d93c27"/>
  <path d="M307.27,80.45c.55,4.24.69,8.52,1.06,12.76-12.33,25.4-31.07,54.8-61.89,58.08-3.53.38-7.21.39-10.76.4,2.76-4.11,6.79-12.48,11.54-14.15,5.66-1.99,12.47-2.65,18.2-4.66l-.15-1.03-18.07,4.26-.13-.83,8.79-9.63,5.35-4.93,16.27-3.75c.03-.63.18-.75-.52-.7-4.37.26-9.2,1.93-13.65,2.12,4.58-4.16,8.93-9.61,15.17-11.23l17.44-2.94c.27-1.07-.86-.74-1.59-.7-5.49.33-11.44,2.63-17.02,2.83l-.18-.7,20.37-17.38c-6.32,2.64-11.78,6.78-17.36,10.64-.38-.54.42-1.63.7-2.14,1.48-2.75,3.44-5.4,4.44-8.32-.1-1.27-2.77,2.03-2.99,2.32-4.32,5.71-5.05,9.92-10.83,15.4-4.34,4.12-9.4,8.02-14.01,11.87.04-4.28,1.92-8.68,2.3-12.94.07-.74.29-1.45-.7-1.23l-3.98,17.46-10.55,11.6-.72-9.74-.7-3.37c-1.05,3.95.27,8,0,11.88-.47,6.95-8.56,13.99-12.06,20.01l-5.67-1.77c-.67-2.7-1.91-5.32-2.13-8.15,5.81-17.52,16.55-33.59,31.57-44.45s33.77-16.24,52.42-16.87Z" fill="#86b962"/>
  <path d="M359.01,221.15c3.1,3.8,6.33,7.51,9.38,11.35l.12,1.35c-24.87,18.76-52.44,33.85-82.79,41.78-33.22,8.68-64.79,9.67-98.6,4.35,9.96-2.65,20.39-2.69,30.55-4.36,37.3-6.14,75.5-15.95,109.09-33.38,11.29-5.86,22.67-12.75,32.25-21.09Z" fill="#cb2b27"/>
  <path d="M198.47,418.91c.76.85,2.32,1.69,3.36,2.14,16.04,6.84,38.28,9.31,55.55,12.5.39.07,1.41.07,1.34.6-22.85,9.55-47.23,14.78-70.52,23.04-3.41-.18-2.49-.5-4.96-1.77.1-.84-1.5-2.1-2.12-2.66-8.76-8-18.31-15.25-26.94-23.38-.52-.49-6.41-6.27-6.02-6.56,15.59-.45,32.26,2.89,46.78-4.26,1.2.1,2.36.24,3.54.35Z" fill="#e5553f"/>
  <path d="M214.77,164.09l-33.64,11.02c-.29.4.53,2.26.32,3.16-.11.49-.95.79-.66,1.87s6.56,5.25,7.87,5.99c11.4,6.41,36.01,8.89,49.15,8.8l10.79,1.08,10.83-.55c1.3.88-2.63,2.22-3.21,2.48-7.9,3.51-27.28,6.09-35.96,5.5-12.88-.87-37.88-9.63-44.54-21.38-.72-1.27-.99-3.89-2.51-3.72-27.68,11.92-55.23,26.99-74.71,50.43-.46.56-.99,1.66-1.76,1.61-.79-1.76-3.47-6.69-3.19-8.31.14-.84,4.22-5.23,5.14-6.22,27.55-29.96,71.28-52.1,112.35-53.86.99-.04,2.05-.14,3.01.17.96.47.52,1.45.71,1.95Z" fill="#f17869"/>
  <path d="M293.45,424.22c-10.43,8.32-22.22,15.76-34.3,21.52-8.29,3.95-17.65,6.77-25.73,10.78-.61.3-2.11.89-1.99,1.73-3.88-.48-7.98-1.21-11.86-1.43-10.36-.59-21.08.91-31.38.37,23.3-8.26,47.68-13.49,70.52-23.04.07-.53-.95-.53-1.34-.6-17.26-3.19-39.5-5.66-55.55-12.5-1.04-.44-2.6-1.28-3.36-2.14,31.77,3.07,62.91,7.09,94.98,5.32Z" fill="#d73c27"/>
  <path d="M293.45,424.22l30.48-2.31c-14.45,17.26-34.04,34.15-56.98,38-12.87,2.16-23.01-.11-35.51-1.67-.11-.84,1.39-1.43,1.99-1.73,8.08-4.01,17.44-6.83,25.73-10.78,12.08-5.76,23.87-13.19,34.3-21.52Z" fill="#cb2b27"/>
  <path d="M370,253.05c5.83-3.15,11.25-7.29,17.36-9.92.67,10.67.81,21.36,1.05,32.09.11,5.11,1.12,12.77.35,17.68-.13.86-.45,1.22-1.06,1.77-2.03,1.84-8.39,5.2-11.08,6.64-4.93,2.63-9.13,3.96-14.06,5.96,1.44-5.19,3.63-10.17,4.94-15.44,3.09-12.43,3-24.1,2.87-36.84,0-.6.23-1.58-.36-1.94Z" fill="#cb2b27"/>
  <path d="M384.53,348.38c2.87-1.25,5.75-3.28,8.85-4.08-7.13,17.03-13.95,34.27-21.55,51.1-.95,2.1-1.8,4.33-2.83,6.39-1.75,3.5-1.9,4.19-5.74,5.25-10.27,2.85-25.66,6.3-36.15,7.62-.14-1.07.61-1.5,1.25-2.11,3.51-3.31,10.27-6.9,14.45-10,8.8-6.52,14.96-12.59,21.44-21.44,7.48-10.22,14.51-21.45,20.27-32.72Z" fill="#cb2b27"/>
  <path d="M308.33,93.21c.81,9.27,1.89,14.94-1.05,24.29-6.83,21.74-37.3,35.99-57.84,41.04-6.62,1.63-13.69,2.94-20.49,3.07l5.73-8.99c.11-.46.88-.74,1-.93,3.55,0,7.23-.02,10.76-.4,30.82-3.28,49.56-32.68,61.89-58.08Z" fill="#64a143"/>
  <path d="M293.45,374.61c-1.63.75-3.52,1.52-5.24,2.03-19.08,5.66-41.09,8.5-60.9,10.69-26.73,2.95-54.27,4.12-80.65-1.84-3.58-.81-7.21-1.59-10.57-3.08-.45-1.29-.66-2.69-1.06-3.9,8.23,1.87,16.55,3.48,24.99,4.25,5.26.48,11.4.97,16.64,1.08,2.85.06,6.56.42,9.05-1.08,20.06,1.87,42.47.66,62.51-1.82,8.76-1.08,17.33-3.33,25.96-4.52,6.37-.87,12.89-1.05,19.27-1.82Z" fill="#d73c27"/>
  <path d="M95.34,343.06c-4.43-3.69-6.85-4.39-8.46-10.5-2.7-10.25-3.82-21.61-6.07-32.03.55-.11.82.06,1.25.34,1.34.86,4.37,4.65,6.02,6.03,16.73,13.99,44.72,20.55,65.95,23.71,8.38,1.25,16.61,2.61,24.94,3.94-.25.81-.92.69-1.58.73-7.04.47-16.61.03-23.76-.38-17.17-.99-37.75-5.49-52.87-13.76l-9.68-6.08,4.25,28Z" fill="#f17869"/>
  <path d="M194.92,418.55c-14.53,7.15-31.19,3.81-46.78,4.26-.39.28,5.5,6.07,6.02,6.56,8.63,8.13,18.18,15.38,26.94,23.38.62.56,2.22,1.82,2.12,2.66-21-10.83-41.93-26.22-57.05-44.49-.36-.44-2.82-3.4-2.49-3.71,20.26,8.9,41.95,11.55,63.98,11.35,2.76-.02,4.31-.26,7.25-.01Z" fill="#f17869"/>
  <path d="M307.27,80.45c-18.65.63-37.24,5.9-52.42,16.87s-25.77,26.93-31.57,44.45c-1.82-2.31-1.01-5.85-.54-8.52,3.86-21.83,23.27-42.46,44.22-48.99,10.61-3.31,25.76-4.93,36.95-5.57.69-.04,2.58-.16,3.03.15.52.45.26,1.09.33,1.62Z" fill="#c9dd94"/>
  <path d="M349.09,320.74c.1-.03.35-.41.7-.53,5.2-1.75,10.29-4.23,15.6-5.5-.44,4.29-.58,8.65-1.06,12.93-.18,1.62-.48,5.99-.97,7.18-.89,2.14-9.18,7.02-11.55,8.3-5.62,3.05-11.99,5.45-17.96,7.74.91-1.11,1.96-3.22,3.05-4.57,2.6-3.24,5.06-5.84,7.06-9.6,2.72-5.1,3.71-10.42,5.13-15.96Z" fill="#cb2b27"/>
  <path d="M367.87,350.51c-17.04,6.78-38.58,14.31-56.62,17.27-.71.12-1.76.48-1.5-.61,15.49-4.99,30.58-11.37,44.89-19.08,3.2-1.72,13.46-7.12,15.15-9.65.42-.63.72-1.2.88-1.95,1.14-5.1.92-13.03,1.44-18.58,7.08,3.95,5.45,14.31,2.65,20.55-1.91,4.26-5.46,7.71-6.9,12.06Z" fill="#f2c972"/>
  <path d="M101.71,274.66c-.4,4.33-.07,8.79-.35,13.11s-2.55,7.26.35,11.16c1.02,1.37,2.92,2.62,4.25,3.72,1.29,4.31,4.25,7.56,6.74,11.16.16.23,1,1.14.35,1.25-10.81-4.12-20.11-8.13-28-17.01,3.2-4.18,4.49-9.37,7.29-13.79,2.94-4.63,5.39-6.27,9.36-9.6Z" fill="#f9eac5"/>
  <path d="M118.37,263.68c-1.52,9.41-5.76,19.53-2.58,28.98,2.74,8.13,11.48,15.13,17.82,20.63-4.14-1.75-8.19-3.89-12.02-6.23s-10.26-6.47-13.31-9.37c-.51-.48-1.23-1.05-1.45-1.74-.54-1.75.34-6.22.6-8.3.84-6.83,1.97-17.54,3.73-23.91.35-1.25,1.21-2.63,2.1-3.58.7-.17,4.26,2.97,5.1,3.52Z" fill="#f17869"/>
  <path d="M388.78,332.08c-.29,4.04-2.11,7.32-3.54,10.99-5.68,2.62-11.55,5.13-17.37,7.44,1.44-4.34,4.99-7.8,6.9-12.06,2.8-6.24,4.43-16.6-2.65-20.55.06-.65-.4-3.12.52-2.83s5.22,3.57,6.21,4.42c4.55,3.91,6.81,7.68,9.92,12.59Z" fill="#f7da97"/>
  <path d="M268.99,183.58c-4.19,1.88-13.39,4.08-18.07,4.96l.69-2.32c.36-2.5-.15-3.53-1.92-5.13-4.29-3.86-11.37-4.04-16.84-3.89-.15-.67-.5-1.69-.71-2.48,5.54.15,11.12-.2,16.66,0,2.45.09,4.83.42,7.26.71l-.53-1.07c3.03-1.88,7.16-2.08,10.19-.09,3.7,2.43,3.42,5.23,3.28,9.3Z" fill="#d73c27"/>
  <path d="M210.16,172.24s.08.35.86.37c2.2.05,4.68-.48,6.58.69.87,1.64.88,2.31,1.42,3.9-4.13.35-9.33.43-12.73,3.04-2.37,1.83-3.21,3.66-.48,5.73,4.63.32,9.94,2.1,14.5,2.2.69.01,1.05-.3,1.54-.69.03.1,1.84,1.76.53,1.78-7.36.11-27.2-3.58-33.84-6.74-1.54-6.48,2.5-8.48,8.15-9.21,3.53-.46,9.94-1.03,13.47-1.06Z" fill="#d73c27"/>
  <path d="M85.06,298.06c-1.31-1.47-5.07-5.82-4.99-7.61.09-1.93,4.23-8.28,5.55-10.08,3.61-4.9,8.96-9.63,14.21-12.72,1.19-.7,4.47-2.54,5.61-2.9.54-.17.56,0,.47.47-.43,2.32-.93,4.64-1.36,6.97-1.31.11-2.01,1.79-2.84,2.48-3.98,3.33-6.42,4.97-9.36,9.6-2.8,4.42-4.09,9.61-7.29,13.79Z" fill="#fbf5ec"/>
  <path d="M206.97,113.41l23.04,76.2c-.96.23-3.12.2-3.47-.96l-5.75-21.01.35-.53-.35-.18c-.02-.12.02-.24,0-.35-1.67-10.6-5.58-21.2-9.21-31.37-2.14-5.99-3.82-9.82-6.74-15.41-.79-1.51-1.61-3.11-2.1-4.76.12-.57,3.59-1.27,4.23-1.62Z" fill="#e3bf8b"/>
  <path d="M185.71,382.76c-2.49,1.5-6.2,1.14-9.05,1.08-5.24-.11-11.38-.6-16.64-1.08-8.44-.77-16.75-2.38-24.99-4.25-.77-2.3-2.34-4.96-2.31-7.44,16.96,6.17,34.97,10.01,52.99,11.69Z" fill="#cb2b27"/>
  <path d="M250.92,188.54c-3.08.58-4.56.55-7.63.69-1.88.09-5.79,1.01-7.39-.02-1.44-.92-2.57-9.89-3.05-12.01,5.47-.14,12.56.03,16.84,3.89,1.77,1.59,2.28,2.62,1.92,5.13l-.69,2.32Z" fill="#cb2b27"/>
  <path d="M132.55,389.85c-1.84,2.4-2.44,5.63-2.03,8.59.29,2.12,2.1,4.37,1.33,6.29-3.91-1.67-7.7-3.63-11.34-5.67.99-7.28,4.68-13.42,8.51-19.49.99,3.17,2.38,7.15,3.54,10.28Z" fill="#f9eac5"/>
  <path d="M132.55,389.85c.62,1.66,4.52,11.04,5.23,11.7.52.49,1.77,1.03,2.47,1.33,7.84,3.36,17.18,5.2,24.9,8.78.53.25.88-.05.7.87-11.58-1.44-23.26-3.19-34.02-7.8.78-1.92-1.04-4.18-1.33-6.29-.4-2.97.19-6.2,2.03-8.59Z" fill="#f0d294"/>
  <path d="M214.77,164.09c.27.73,2.16,4.95,1.77,5.31-4.86.49-10.16.9-14.96,1.88-1.72.35-3.81.47-4.89,2.02-5.66.74-9.7,2.74-8.15,9.21-2.51-1.19-4.57-3.08-7.09-4.25.2-.9-.61-2.76-.32-3.16l33.64-11.02Z" fill="#e5553f"/>
  <path d="M219.02,177.2c1.17,3.43,1.84,6.88,2.84,10.28-.49.39-.85.71-1.54.69-4.55-.1-9.87-1.88-14.5-2.2-2.74-2.07-1.89-3.9.48-5.73,3.39-2.62,8.59-2.69,12.73-3.04Z" fill="#cb2b27"/>
  <path d="M230.01,189.61l-23.04-76.2c.23-.12,1.73-2.28,2.3-1.42l21.73,75.77-.1,1.13c-.11.25-.63.65-.89.71Z" fill="#ca904a"/>
  <path d="M129,379.57c-3.83,6.08-7.51,12.21-8.51,19.49-1.44-.81-3.99-1.23-4.25-3.4-.15-1.29.76-4.5,1.16-5.89,1.75-6.14,5.54-11.72,10-16.22,1.13,1.72,1.03,4.23,1.59,6.02Z" fill="#fbf5ec"/>
  <path d="M381.34,233.2c-.54,3.45-2.01,6.78-2.13,10.28-3.71,2.2-7.11,4.38-10.99,6.38-1.19-1.42-1.37-3.32-2.13-4.96,1.66-1.85,11.13-7.37,11.64-9.12.66-2.27-5-8.13-5.44-10.72,3.29,2.4,6.1,5.4,9.04,8.14Z" fill="#f0d294"/>
  <path d="M368.23,249.86c-10.74,5.53-21.9,10.41-32.96,15.24l30.83-20.2c.75,1.65.94,3.54,2.13,4.96Z" fill="#f2c972"/>
  <path d="M105.97,302.66c8.47,7.03,17.8,13.12,27.64,18.08.08.66-.75.29-1.13.25-6.8-.78-13.13-3.52-19.42-5.92.65-.11-.19-1.02-.35-1.25-2.49-3.6-5.45-6.84-6.74-11.16Z" fill="#f0d294"/>
  <path d="M220.79,166.57l-15.95-46.78c2.92,5.59,4.6,9.42,6.74,15.41,3.63,10.17,7.54,20.78,9.21,31.37Z" fill="#f9eac5"/>
  <path d="M381.34,233.2c1.46,1.36,3.85,2.92,5.16,4.59.3.39.63.67.54,1.24-.05.32-4.72,3.01-5.46,3.45s-1.81.68-2.36,1c.11-3.5,1.58-6.83,2.13-10.28Z" fill="#f9eac5"/>
  <path d="M388.78,332.08c.72,1.14,4.86,6.5,4.22,7.41-2.77.79-5.18,2.38-7.77,3.57,1.44-3.67,3.25-6.95,3.54-10.99Z" fill="#f9eac5"/>
  <path d="M231.07,151.69l-3.54,7.09c-1.02-2.87-1.4-5.92-2.13-8.86l5.67,1.77Z" fill="#64a143"/>
  <path d="M248.79,174.72c-5.53-.2-11.12.15-16.66,0-.07-.27-1.27-2.81-.53-2.84l17.18,2.84Z" fill="#e5553f"/>
  <path d="M104.55,272.18c-.96,5.2-2,10.44-3.19,15.59.29-4.32-.05-8.78.35-13.11.83-.69,1.52-2.37,2.84-2.48Z" fill="#f0d294"/>
  <path d="M207.33,107.03c-1.52,2.22-3.91,3.94-6.73,3.54.68-3.09,3.95-3.85,6.73-3.54Z" fill="#ddb785"/>
  <path d="M217.61,173.3c-1.9-1.17-4.39-.65-6.58-.69-.78-.02-.81-.37-.86-.37,1.26-.33,6.2-1.2,6.92-.35.23.27.31,1,.53,1.42Z" fill="#e5553f"/>
  <path d="M220.79,167.63c-.02-.23.03-.48,0-.71l.35.18-.35.53Z" fill="#f9eac5"/>
  <path d="M276.61,106.32c.23.12.23.24,0,.35v-.35Z" fill="#86b962"/>
  <path d="M303.37,477.03l-1.23.71c-11.96,1.04-23.87,2.64-35.81,3.89-30.86,3.21-60.7,6.47-91.79,3.19-14.47-1.53-46.12-6.05-55.46-17.9-8.46-10.73,1.44-21.16,13.28-20.72,1.59.06,6.03.59,6.74,2.13,1.36,2.92-5.23,3.2-6.9,3.72-2.47.77-7.76,3.89-6.94,6.9,1.53,5.69,15.93,10.14,21.11,11.52,28.33,7.54,64.64,7.19,94.08,7.98,20.96.57,42.05.47,62.92-1.43Z" fill="#b1c08c"/>
  <path d="M314.71,477.03l5.02-1.17c12.15-7.08,27.04-8.77,38.89-16.04,2.7-1.66,6.5-3.66,3.57-7.06l-4.25-4.08c6.07,2.26,13.72,5.91,8.66,13.44s-18.79,13.44-27.09,15.44c-8.53,2.05-16.25-.11-24.81-.53Z" fill="#b1c08c"/>
  <rect x="304.08" y="477.03" width="1.06" height=".35" fill="#b1c08c"/>
  <path d="M275.02,194.57c-.11-.91.55-1.62,1.08-2.29,4.26-5.43,9.74-.17,3.42,2.35-2.08.83-2.37.43-4.49-.06Z" fill="#f17869"/>
</svg>