<?xml version="1.0" encoding="UTF-8"?>
<svg id="Layer_1" xmlns="http://www.w3.org/2000/svg" version="1.1" viewBox="0 0 1080 1080">
  <!-- Generator: Adobe Illustrator 29.1.0, SVG Export Plug-In . SVG Version: 2.1.0 Build 142)  -->
  <defs>
    <style>
      .st0 {
        fill: none;
      }

      .st1 {
        fill: #ffd64d;
      }

      .st2 {
        fill: #fff2ff;
      }

      .st3 {
        fill: #007dff;
      }

      .st4 {
        fill: #ff8bff;
      }
    </style>
  </defs>
  <rect class="st2" x="0" width="1080.0001" height="1080"/>
  <path class="st4" d="M593.8883,615.0811c-18.4648,0-36.2344-10.2197-45.0146-27.874-12.3545-24.8408-2.2334-54.9922,22.6064-67.3467l98.4365-48.9585c24.8408-12.355,54.9912-2.2339,67.3467,22.6069,12.3545,24.8398,2.2334,54.9922-22.6064,67.3467l-98.4365,48.958c-7.1855,3.5732-14.8174,5.2676-22.332,5.2676Z"/>
  <rect class="st1" x="413.56" y="373.2489" width="252.8832" height="298.7673"/>
  <path class="st4" d="M467.449,493.808c-14.9438-14.2084-37.286-15.7939-53.889-5.1073v125.3803l55.4503-58.3169c16.677-17.5401,15.978-45.2783-1.5613-61.9561Z"/>
  <circle class="st3" cx="540.0016" cy="373.2489" r="126.4416"/>
  <path class="st4" d="M540.0016,320.2964c-33.3997,0-61.5543,22.378-70.3399,52.9523,8.7856,30.5743,36.9402,52.9525,70.3399,52.9525s61.5542-22.3782,70.3398-52.9525c-8.7856-30.5743-36.9401-52.9523-70.3398-52.9523Z"/>
  <circle class="st1" cx="540.0016" cy="373.2489" r="31.3983"/>
  <circle class="st3" cx="540.0016" cy="373.2489" r="20.5"/>
  <circle class="st1" cx="610.3414" cy="373.2488" r="9"/>
  <circle class="st1" cx="469.6618" cy="373.2488" r="9"/>
  <rect class="st1" x="497.9762" y="264.4674" width="84.0508" height="46.1455" rx="23.0727" ry="23.0727" transform="translate(15.7889 -27.8677) rotate(3)"/>
  <path class="st4" d="M706.7584,420.3848c-2.6934.0005-5.4316-.4521-8.1143-1.4062l-50.1113-17.8208c-8.3984-2.9868-14.4775-10.3457-15.8252-19.1572-1.3467-8.811,2.2549-17.6504,9.3779-23.0103l46.2314-34.7925c10.6904-8.042,25.8721-5.8979,33.9121,4.7881,8.043,10.687,5.8994,25.8696-4.7881,33.9121l-10.25,7.7139,7.6816,2.7319c12.6016,4.4814,19.1846,18.3301,14.7031,30.9316-3.5273,9.9189-12.8594,16.1089-22.8174,16.1094Z"/>
  <path class="st1" d="M0,882.81v134.12c77-35.27,150.25-61.1,218.3-76.95,24.22-5.64,47.91-10.09,71.23-13.37h.01c44.69-6.29,88.01-8.27,131.02-6.05,44.08,2.28,85.6,8.9,125.77,18.42,44.5,10.53,87.31,24.62,130.1,40.29h.01c26.41,9.67,52.79,19.94,79.54,30.36,65.36,25.45,132.02,51.4,203.87,70.37h120.15v-210.75c-58.55-9.9-114.98-28.24-172.17-49.48-22.42-8.33-44.97-17.11-67.8-26-115.87-45.11-247.2-96.25-407.5-104.54-87.43-4.52-174.69,3.7-266.77,25.15-16.53,3.85-33.14,8.1-49.84,12.78C77.89,737.79,39.35,750.57,0,765.63v117.18Z"/>
  <path class="st4" d="M79.6624,607.1737c35.368,222.3951,227.9895,392.39,460.3392,392.39s424.9712-169.9949,460.3392-392.39H79.6624Z"/>
  <path class="st1" d="M0,1017.83c135.85-55.33,256.17-67.01,358.89-34.63,49.32,15.55,95.87,41.77,138.38,77.93,7.06,6.01,14.02,12.29,20.91,18.87h167.58c-24.16-32.22-48.82-60.61-74.61-85.85-10.46-10.25-21.12-19.99-32-29.25-10.72-9.12-21.67-17.77-32.82-25.92-46.5-34.03-96.61-59.62-149.45-76.28-64.63-20.38-134.15-27.67-207.23-21.8-16.14,1.3-32.45,3.24-48.93,5.82C95.41,853.81,48.42,865.88,0,882.81v135.02Z"/>
  <rect class="st0" x="0" width="1080.0001" height="1080"/>
</svg>