<?xml version="1.0" encoding="UTF-8"?>
<svg id="Layer_1" data-name="Layer 1" xmlns="http://www.w3.org/2000/svg" xmlns:xlink="http://www.w3.org/1999/xlink" viewBox="0 0 1080 1350">
  <defs>
    <style>
      .cls-1 {
        fill: #dd6d3d;
      }

      .cls-2 {
        fill: #f6ebd9;
      }

      .cls-3 {
        fill: #f4ac00;
      }

      .cls-4 {
        fill: #1d57f6;
      }

      .cls-5 {
        fill: #fe4a00;
      }

      .cls-6 {
        fill: #fd73ed;
      }

      .cls-7 {
        fill: #121856;
      }

      .cls-8 {
        fill: #a81b24;
      }

      .cls-9 {
        fill: #bb2040;
      }

      .cls-10 {
        clip-path: url(#clippath);
      }

      .cls-11 {
        fill: #d44535;
      }

      .cls-12 {
        fill: none;
      }

      .cls-13 {
        fill: #00a1f1;
      }
    </style>
    <clipPath id="clippath">
      <rect class="cls-12" x="-1420" width="1080" height="1350"/>
    </clipPath>
  </defs>
  <g class="cls-10">
    <path class="cls-1" d="m-195.28,766.47c-27.77,51.2-78.72,89.23-135.71,101.3-52.73,11.16-107.61.9-161.3,5.58-53.7,4.68-112.7,31.84-125.92,84.09-13.5,53.34,24.72,116.85-7.49,161.46-27.7,38.37-91.53,35.93-117.71,75.36-12.52,18.86-13.17,42.93-13.4,65.57-1.2,119.4.92,249.09,74.76,342.93,43.37,55.11,107.76,91.21,175.51,109.34,67.75,18.12,138.99,19.38,208.91,14.02,59.65-4.57,120.7-14.49,171.9-45.44,55.48-33.53,94.29-88.66,126.23-145.07,57.46-101.51,98.37-214.1,105.24-330.54,9.79-165.75-48.95-327-106.8-482.63-14.08-37.89-29.07-77.19-58.41-105-25.43-24.1-96.37-51.31-112.96-3.52-7.44,21.44,2.46,49.77.67,72.34-2.22,27.97-10.12,55.54-23.5,80.23Z"/>
    <path class="cls-11" d="m83.39,655.4c18.06,30.24,16.24,69.43,2.13,101.71-14.11,32.28-39.07,58.6-65.85,81.49-86.62,74.01-198,118.52-311.77,124.6-42.19,2.25-85.31-.51-125.91,11.18-40.6,11.69-79.52,42.49-84.76,84.42-4.13,33.04,12.81,68.57-1.2,98.77-19.05,41.07-79.05,41.66-110.98,73.75-31.64,31.8-26.83,83.53-19.79,127.84,9.9,62.35,20.03,125.51,45.58,183.23,25.55,57.72,68.74,110.36,127.45,133.56,45.02,17.78,95.11,17.01,143.29,12.29,176.49-17.27,347.76-84.98,488.34-193.07,39.04-30.02,76.57-64.1,99.21-107.83,27.31-52.74,30.46-114.29,31.63-173.67,2.71-137.67-2.25-275.49-14.85-412.62-4.32-47.05-11.37-97.97-44.9-131.26-22.89-22.72-54.84-33.58-86.14-41.38-25.03-6.24-54.73-9.9-73.74,7.52-15.45,14.15-18.06,38.32-11.88,58.34,6.18,20.01,19.56,36.88,32.65,53.22"/>
    <path class="cls-8" d="m-124.72,788.79c21.38,29.04,23.05,69.22,11.66,103.44-11.39,34.22-34.24,63.41-58.86,89.75-40.47,43.29-86.92,80.99-137.62,111.66-36.97,22.37-78.7,43.61-97.13,82.69-10.36,21.97-12.96,48.93-31.15,65.02-29.35,25.95-85.62,11.11-105.05,45.13-9.25,16.2-4.89,36.8,2.84,53.78s18.63,32.82,22.47,51.07c8.94,42.48-22.3,86.13-12.2,128.35,6.63,27.72,29.98,48.46,54.86,62.36,65.75,36.74,148.39,36.83,218.43,9.13,70.04-27.7,128.02-80.93,170.6-143.05S-15.09,1315.13,7.2,1243.18c21.77-70.28,38.33-144.84,24.35-217.06-17.95-92.71-89.29-173.11-179.21-201.96"/>
  </g>
  <g>
    <rect width="1080" height="1350"/>
    <g>
      <g>
        <rect class="cls-4" x="112.71" y="531.87" width="1099.68" height="35.95" transform="translate(1212.39 -112.71) rotate(90)"/>
        <rect class="cls-13" x="77.7" y="531.87" width="1099.68" height="35.95" transform="translate(1177.38 -77.7) rotate(90)"/>
        <rect class="cls-7" x="42.68" y="531.87" width="1099.68" height="35.95" transform="translate(1142.36 -42.68) rotate(90)"/>
        <rect class="cls-2" x="7.67" y="531.87" width="1099.68" height="35.95" transform="translate(1107.35 -7.67) rotate(90)"/>
        <rect class="cls-3" x="-27.35" y="531.87" width="1099.68" height="35.95" transform="translate(1072.33 27.35) rotate(90)"/>
        <rect class="cls-5" x="-62.36" y="531.87" width="1099.68" height="35.95" transform="translate(1037.32 62.36) rotate(90)"/>
        <rect class="cls-6" x="-97.38" y="531.87" width="1099.68" height="35.95" transform="translate(1002.31 97.38) rotate(90)"/>
        <rect class="cls-9" x="-132.39" y="531.87" width="1099.68" height="35.95" transform="translate(967.29 132.39) rotate(90)"/>
      </g>
      <g>
        <polygon class="cls-4" points="937.77 1350 644.58 1098.81 680.52 1098.81 1074.5 1350 937.77 1350"/>
        <polygon class="cls-13" points="804.59 1350 609.56 1098.81 645.51 1098.81 941.32 1350 804.59 1350"/>
        <polygon class="cls-7" points="671.41 1350 574.55 1098.81 610.5 1098.81 808.14 1350 671.41 1350"/>
        <polygon class="cls-2" points="538.22 1350 539.53 1098.81 575.48 1098.81 674.96 1350 538.22 1350"/>
        <polygon class="cls-3" points="405.04 1350 504.52 1098.81 540.47 1098.81 541.78 1350 405.04 1350"/>
        <polygon class="cls-5" points="271.86 1350 469.5 1098.81 505.45 1098.81 408.59 1350 271.86 1350"/>
        <polygon class="cls-6" points="138.68 1350 434.49 1098.81 470.44 1098.81 275.41 1350 138.68 1350"/>
        <polygon class="cls-9" points="5.5 1350 399.48 1098.81 435.42 1098.81 142.23 1350 5.5 1350"/>
      </g>
    </g>
  </g>
</svg>