<?xml version="1.0" encoding="UTF-8"?>
<svg id="Camada_2" data-name="Camada 2" xmlns="http://www.w3.org/2000/svg" xmlns:xlink="http://www.w3.org/1999/xlink" viewBox="0 0 4000 5000">
  <defs>
    <style>
      .cls-1 {
        fill: url(#Gradiente_sem_nome_4);
      }

      .cls-2 {
        fill: url(#Gradiente_sem_nome_4-3);
      }

      .cls-3 {
        fill: url(#Gradiente_sem_nome_4-6);
      }

      .cls-4 {
        fill: url(#Gradiente_sem_nome_4-4);
      }

      .cls-5 {
        fill: url(#Gradiente_sem_nome_4-9);
      }

      .cls-6 {
        fill: url(#Gradiente_sem_nome_4-5);
      }

      .cls-7 {
        fill: url(#Gradiente_sem_nome_4-8);
      }

      .cls-8 {
        fill: url(#Gradiente_sem_nome_4-7);
      }

      .cls-9 {
        fill: url(#Gradiente_sem_nome_4-2);
      }

      .cls-10 {
        fill: url(#Gradiente_sem_nome_4-70);
      }

      .cls-11 {
        fill: url(#Gradiente_sem_nome_4-71);
      }

      .cls-12 {
        fill: url(#Gradiente_sem_nome_4-77);
      }

      .cls-13 {
        fill: url(#Gradiente_sem_nome_4-79);
      }

      .cls-14 {
        fill: url(#Gradiente_sem_nome_4-76);
      }

      .cls-15 {
        fill: url(#Gradiente_sem_nome_4-78);
      }

      .cls-16 {
        fill: url(#Gradiente_sem_nome_4-74);
      }

      .cls-17 {
        fill: url(#Gradiente_sem_nome_4-75);
      }

      .cls-18 {
        fill: url(#Gradiente_sem_nome_4-72);
      }

      .cls-19 {
        fill: url(#Gradiente_sem_nome_4-73);
      }

      .cls-20 {
        fill: url(#Gradiente_sem_nome_4-20);
      }

      .cls-21 {
        fill: url(#Gradiente_sem_nome_4-14);
      }

      .cls-22 {
        fill: url(#Gradiente_sem_nome_4-13);
      }

      .cls-23 {
        fill: url(#Gradiente_sem_nome_4-11);
      }

      .cls-24 {
        fill: url(#Gradiente_sem_nome_4-15);
      }

      .cls-25 {
        fill: url(#Gradiente_sem_nome_4-18);
      }

      .cls-26 {
        fill: url(#Gradiente_sem_nome_4-17);
      }

      .cls-27 {
        fill: url(#Gradiente_sem_nome_4-19);
      }

      .cls-28 {
        fill: url(#Gradiente_sem_nome_4-16);
      }

      .cls-29 {
        fill: url(#Gradiente_sem_nome_4-10);
      }

      .cls-30 {
        fill: url(#Gradiente_sem_nome_4-42);
      }

      .cls-31 {
        fill: url(#Gradiente_sem_nome_4-41);
      }

      .cls-32 {
        fill: url(#Gradiente_sem_nome_4-53);
      }

      .cls-33 {
        fill: url(#Gradiente_sem_nome_4-51);
      }

      .cls-34 {
        fill: url(#Gradiente_sem_nome_4-52);
      }

      .cls-35 {
        fill: url(#Gradiente_sem_nome_4-55);
      }

      .cls-36 {
        fill: url(#Gradiente_sem_nome_4-50);
      }

      .cls-37 {
        fill: url(#Gradiente_sem_nome_4-80);
      }

      .cls-38 {
        fill: url(#Gradiente_sem_nome_4-81);
      }

      .cls-39 {
        fill: url(#Gradiente_sem_nome_4-54);
      }

      .cls-40 {
        fill: url(#Gradiente_sem_nome_4-57);
      }

      .cls-41 {
        fill: url(#Gradiente_sem_nome_4-56);
      }

      .cls-42 {
        fill: url(#Gradiente_sem_nome_4-59);
      }

      .cls-43 {
        fill: url(#Gradiente_sem_nome_4-58);
      }

      .cls-44 {
        fill: url(#Gradiente_sem_nome_4-12);
      }

      .cls-45 {
        fill: url(#Gradiente_sem_nome_4-40);
      }

      .cls-46 {
        fill: url(#Gradiente_sem_nome_4-43);
      }

      .cls-47 {
        fill: url(#Gradiente_sem_nome_4-45);
      }

      .cls-48 {
        fill: url(#Gradiente_sem_nome_4-48);
      }

      .cls-49 {
        fill: url(#Gradiente_sem_nome_4-47);
      }

      .cls-50 {
        fill: url(#Gradiente_sem_nome_4-46);
      }

      .cls-51 {
        fill: url(#Gradiente_sem_nome_4-49);
      }

      .cls-52 {
        fill: url(#Gradiente_sem_nome_4-44);
      }

      .cls-53 {
        fill: url(#Gradiente_sem_nome_4-21);
      }

      .cls-54 {
        fill: url(#Gradiente_sem_nome_4-22);
      }

      .cls-55 {
        fill: url(#Gradiente_sem_nome_4-26);
      }

      .cls-56 {
        fill: url(#Gradiente_sem_nome_4-23);
      }

      .cls-57 {
        fill: url(#Gradiente_sem_nome_4-24);
      }

      .cls-58 {
        fill: url(#Gradiente_sem_nome_4-28);
      }

      .cls-59 {
        fill: url(#Gradiente_sem_nome_4-25);
      }

      .cls-60 {
        fill: url(#Gradiente_sem_nome_4-27);
      }

      .cls-61 {
        fill: url(#Gradiente_sem_nome_4-29);
      }

      .cls-62 {
        fill: url(#Gradiente_sem_nome_4-62);
      }

      .cls-63 {
        fill: url(#Gradiente_sem_nome_4-66);
      }

      .cls-64 {
        fill: url(#Gradiente_sem_nome_4-63);
      }

      .cls-65 {
        fill: url(#Gradiente_sem_nome_4-64);
      }

      .cls-66 {
        fill: url(#Gradiente_sem_nome_4-67);
      }

      .cls-67 {
        fill: url(#Gradiente_sem_nome_4-61);
      }

      .cls-68 {
        fill: url(#Gradiente_sem_nome_4-65);
      }

      .cls-69 {
        fill: url(#Gradiente_sem_nome_4-60);
      }

      .cls-70 {
        fill: url(#Gradiente_sem_nome_4-37);
      }

      .cls-71 {
        fill: url(#Gradiente_sem_nome_4-69);
      }

      .cls-72 {
        fill: url(#Gradiente_sem_nome_4-68);
      }

      .cls-73 {
        fill: url(#Gradiente_sem_nome_4-32);
      }

      .cls-74 {
        fill: url(#Gradiente_sem_nome_4-30);
      }

      .cls-75 {
        fill: url(#Gradiente_sem_nome_4-31);
      }

      .cls-76 {
        fill: url(#Gradiente_sem_nome_4-39);
      }

      .cls-77 {
        fill: url(#Gradiente_sem_nome_4-38);
      }

      .cls-78 {
        fill: url(#Gradiente_sem_nome_4-33);
      }

      .cls-79 {
        fill: url(#Gradiente_sem_nome_4-36);
      }

      .cls-80 {
        fill: url(#Gradiente_sem_nome_4-34);
      }

      .cls-81 {
        fill: url(#Gradiente_sem_nome_4-35);
      }
    </style>
    <linearGradient id="Gradiente_sem_nome_4" data-name="Gradiente sem nome 4" x1="13195.5" y1="3790.29" x2="13449.11" y2="3790.29" gradientTransform="translate(16348.14) rotate(-180) scale(1 -1)" gradientUnits="userSpaceOnUse">
      <stop offset="0" stop-color="#fff"/>
      <stop offset="1" stop-color="#1d1d1b"/>
    </linearGradient>
    <linearGradient id="Gradiente_sem_nome_4-2" data-name="Gradiente sem nome 4" x1="13464.28" y1="3790.14" x2="13705.57" y2="3790.14" xlink:href="#Gradiente_sem_nome_4"/>
    <linearGradient id="Gradiente_sem_nome_4-3" data-name="Gradiente sem nome 4" x1="13733.07" y1="3790" x2="13962.03" y2="3790" xlink:href="#Gradiente_sem_nome_4"/>
    <linearGradient id="Gradiente_sem_nome_4-4" data-name="Gradiente sem nome 4" x1="14001.85" y1="3789.85" x2="14218.49" y2="3789.85" xlink:href="#Gradiente_sem_nome_4"/>
    <linearGradient id="Gradiente_sem_nome_4-5" data-name="Gradiente sem nome 4" x1="14270.64" y1="3789.71" x2="14474.95" y2="3789.71" xlink:href="#Gradiente_sem_nome_4"/>
    <linearGradient id="Gradiente_sem_nome_4-6" data-name="Gradiente sem nome 4" x1="14539.42" y1="3789.56" x2="14731.41" y2="3789.56" xlink:href="#Gradiente_sem_nome_4"/>
    <linearGradient id="Gradiente_sem_nome_4-7" data-name="Gradiente sem nome 4" x1="14808.21" y1="3789.42" x2="14987.87" y2="3789.42" xlink:href="#Gradiente_sem_nome_4"/>
    <linearGradient id="Gradiente_sem_nome_4-8" data-name="Gradiente sem nome 4" x1="15076.99" y1="3789.27" x2="15244.33" y2="3789.27" xlink:href="#Gradiente_sem_nome_4"/>
    <linearGradient id="Gradiente_sem_nome_4-9" data-name="Gradiente sem nome 4" x1="15345.78" y1="3789.13" x2="15500.79" y2="3789.13" xlink:href="#Gradiente_sem_nome_4"/>
    <linearGradient id="Gradiente_sem_nome_4-10" data-name="Gradiente sem nome 4" y1="3466.84" y2="3466.84" xlink:href="#Gradiente_sem_nome_4"/>
    <linearGradient id="Gradiente_sem_nome_4-11" data-name="Gradiente sem nome 4" x1="13464.28" y1="3466.69" x2="13705.57" y2="3466.69" xlink:href="#Gradiente_sem_nome_4"/>
    <linearGradient id="Gradiente_sem_nome_4-12" data-name="Gradiente sem nome 4" x1="13733.07" y1="3466.55" x2="13962.03" y2="3466.55" xlink:href="#Gradiente_sem_nome_4"/>
    <linearGradient id="Gradiente_sem_nome_4-13" data-name="Gradiente sem nome 4" x1="14001.85" y1="3466.4" x2="14218.49" y2="3466.4" xlink:href="#Gradiente_sem_nome_4"/>
    <linearGradient id="Gradiente_sem_nome_4-14" data-name="Gradiente sem nome 4" x1="14270.64" y1="3466.26" x2="14474.95" y2="3466.26" xlink:href="#Gradiente_sem_nome_4"/>
    <linearGradient id="Gradiente_sem_nome_4-15" data-name="Gradiente sem nome 4" x1="14539.42" y1="3466.11" x2="14731.41" y2="3466.11" xlink:href="#Gradiente_sem_nome_4"/>
    <linearGradient id="Gradiente_sem_nome_4-16" data-name="Gradiente sem nome 4" x1="14808.21" y1="3465.97" x2="14987.87" y2="3465.97" xlink:href="#Gradiente_sem_nome_4"/>
    <linearGradient id="Gradiente_sem_nome_4-17" data-name="Gradiente sem nome 4" x1="15076.99" y1="3465.82" x2="15244.33" y2="3465.82" xlink:href="#Gradiente_sem_nome_4"/>
    <linearGradient id="Gradiente_sem_nome_4-18" data-name="Gradiente sem nome 4" x1="15345.78" y1="3465.68" x2="15500.79" y2="3465.68" xlink:href="#Gradiente_sem_nome_4"/>
    <linearGradient id="Gradiente_sem_nome_4-19" data-name="Gradiente sem nome 4" y1="3149.12" y2="3149.12" xlink:href="#Gradiente_sem_nome_4"/>
    <linearGradient id="Gradiente_sem_nome_4-20" data-name="Gradiente sem nome 4" x1="13464.28" y1="3148.97" x2="13705.57" y2="3148.97" xlink:href="#Gradiente_sem_nome_4"/>
    <linearGradient id="Gradiente_sem_nome_4-21" data-name="Gradiente sem nome 4" x1="13733.07" y1="3148.83" x2="13962.03" y2="3148.83" xlink:href="#Gradiente_sem_nome_4"/>
    <linearGradient id="Gradiente_sem_nome_4-22" data-name="Gradiente sem nome 4" x1="14001.85" y1="3148.68" x2="14218.49" y2="3148.68" xlink:href="#Gradiente_sem_nome_4"/>
    <linearGradient id="Gradiente_sem_nome_4-23" data-name="Gradiente sem nome 4" x1="14270.64" y1="3148.54" x2="14474.95" y2="3148.54" xlink:href="#Gradiente_sem_nome_4"/>
    <linearGradient id="Gradiente_sem_nome_4-24" data-name="Gradiente sem nome 4" x1="14539.42" y1="3148.39" x2="14731.41" y2="3148.39" xlink:href="#Gradiente_sem_nome_4"/>
    <linearGradient id="Gradiente_sem_nome_4-25" data-name="Gradiente sem nome 4" x1="14808.21" y1="3148.25" x2="14987.87" y2="3148.25" xlink:href="#Gradiente_sem_nome_4"/>
    <linearGradient id="Gradiente_sem_nome_4-26" data-name="Gradiente sem nome 4" x1="15076.99" y1="3148.1" x2="15244.33" y2="3148.1" xlink:href="#Gradiente_sem_nome_4"/>
    <linearGradient id="Gradiente_sem_nome_4-27" data-name="Gradiente sem nome 4" x1="15345.78" y1="3147.95" x2="15500.79" y2="3147.95" xlink:href="#Gradiente_sem_nome_4"/>
    <linearGradient id="Gradiente_sem_nome_4-28" data-name="Gradiente sem nome 4" y1="2825.67" y2="2825.67" xlink:href="#Gradiente_sem_nome_4"/>
    <linearGradient id="Gradiente_sem_nome_4-29" data-name="Gradiente sem nome 4" x1="13464.28" y1="2825.52" x2="13705.57" y2="2825.52" xlink:href="#Gradiente_sem_nome_4"/>
    <linearGradient id="Gradiente_sem_nome_4-30" data-name="Gradiente sem nome 4" x1="13733.07" y1="2825.38" x2="13962.03" y2="2825.38" xlink:href="#Gradiente_sem_nome_4"/>
    <linearGradient id="Gradiente_sem_nome_4-31" data-name="Gradiente sem nome 4" x1="14001.85" y1="2825.23" x2="14218.49" y2="2825.23" xlink:href="#Gradiente_sem_nome_4"/>
    <linearGradient id="Gradiente_sem_nome_4-32" data-name="Gradiente sem nome 4" x1="14270.64" y1="2825.09" x2="14474.95" y2="2825.09" xlink:href="#Gradiente_sem_nome_4"/>
    <linearGradient id="Gradiente_sem_nome_4-33" data-name="Gradiente sem nome 4" x1="14539.42" y1="2824.94" x2="14731.41" y2="2824.94" xlink:href="#Gradiente_sem_nome_4"/>
    <linearGradient id="Gradiente_sem_nome_4-34" data-name="Gradiente sem nome 4" x1="14808.21" y1="2824.8" x2="14987.87" y2="2824.8" xlink:href="#Gradiente_sem_nome_4"/>
    <linearGradient id="Gradiente_sem_nome_4-35" data-name="Gradiente sem nome 4" x1="15076.99" y1="2824.65" x2="15244.33" y2="2824.65" xlink:href="#Gradiente_sem_nome_4"/>
    <linearGradient id="Gradiente_sem_nome_4-36" data-name="Gradiente sem nome 4" x1="15345.78" y1="2824.51" x2="15500.79" y2="2824.51" xlink:href="#Gradiente_sem_nome_4"/>
    <linearGradient id="Gradiente_sem_nome_4-37" data-name="Gradiente sem nome 4" x1="15247.17" y1="11684.26" x2="15500.79" y2="11684.26" gradientTransform="translate(16348.14 14192.21) rotate(-180)" xlink:href="#Gradiente_sem_nome_4"/>
    <linearGradient id="Gradiente_sem_nome_4-38" data-name="Gradiente sem nome 4" x1="14990.71" y1="11684.41" x2="15232" y2="11684.41" gradientTransform="translate(16348.14 14192.21) rotate(-180)" xlink:href="#Gradiente_sem_nome_4"/>
    <linearGradient id="Gradiente_sem_nome_4-39" data-name="Gradiente sem nome 4" x1="14734.25" y1="11684.56" x2="14963.22" y2="11684.56" gradientTransform="translate(16348.14 14192.21) rotate(-180)" xlink:href="#Gradiente_sem_nome_4"/>
    <linearGradient id="Gradiente_sem_nome_4-40" data-name="Gradiente sem nome 4" x1="14477.79" y1="11684.7" x2="14694.43" y2="11684.7" gradientTransform="translate(16348.14 14192.21) rotate(-180)" xlink:href="#Gradiente_sem_nome_4"/>
    <linearGradient id="Gradiente_sem_nome_4-41" data-name="Gradiente sem nome 4" x1="14221.33" y1="11684.85" x2="14425.65" y2="11684.85" gradientTransform="translate(16348.14 14192.21) rotate(-180)" xlink:href="#Gradiente_sem_nome_4"/>
    <linearGradient id="Gradiente_sem_nome_4-42" data-name="Gradiente sem nome 4" x1="13964.87" y1="11684.99" x2="14156.86" y2="11684.99" gradientTransform="translate(16348.14 14192.21) rotate(-180)" xlink:href="#Gradiente_sem_nome_4"/>
    <linearGradient id="Gradiente_sem_nome_4-43" data-name="Gradiente sem nome 4" x1="13708.41" y1="11685.14" x2="13888.08" y2="11685.14" gradientTransform="translate(16348.14 14192.21) rotate(-180)" xlink:href="#Gradiente_sem_nome_4"/>
    <linearGradient id="Gradiente_sem_nome_4-44" data-name="Gradiente sem nome 4" x1="13451.95" y1="11685.28" x2="13619.29" y2="11685.28" gradientTransform="translate(16348.14 14192.21) rotate(-180)" xlink:href="#Gradiente_sem_nome_4"/>
    <linearGradient id="Gradiente_sem_nome_4-45" data-name="Gradiente sem nome 4" y1="11685.43" x2="13350.51" y2="11685.43" gradientTransform="translate(16348.14 14192.21) rotate(-180)" xlink:href="#Gradiente_sem_nome_4"/>
    <linearGradient id="Gradiente_sem_nome_4-46" data-name="Gradiente sem nome 4" x1="15247.17" y1="12007.71" x2="15500.79" y2="12007.71" gradientTransform="translate(16348.14 14192.21) rotate(-180)" xlink:href="#Gradiente_sem_nome_4"/>
    <linearGradient id="Gradiente_sem_nome_4-47" data-name="Gradiente sem nome 4" x1="14990.71" y1="12007.86" x2="15232" y2="12007.86" gradientTransform="translate(16348.14 14192.21) rotate(-180)" xlink:href="#Gradiente_sem_nome_4"/>
    <linearGradient id="Gradiente_sem_nome_4-48" data-name="Gradiente sem nome 4" x1="14734.25" y1="12008" x2="14963.22" y2="12008" gradientTransform="translate(16348.14 14192.21) rotate(-180)" xlink:href="#Gradiente_sem_nome_4"/>
    <linearGradient id="Gradiente_sem_nome_4-49" data-name="Gradiente sem nome 4" x1="14477.79" y1="12008.15" x2="14694.43" y2="12008.15" gradientTransform="translate(16348.14 14192.21) rotate(-180)" xlink:href="#Gradiente_sem_nome_4"/>
    <linearGradient id="Gradiente_sem_nome_4-50" data-name="Gradiente sem nome 4" x1="14221.33" y1="12008.29" x2="14425.65" y2="12008.29" gradientTransform="translate(16348.14 14192.21) rotate(-180)" xlink:href="#Gradiente_sem_nome_4"/>
    <linearGradient id="Gradiente_sem_nome_4-51" data-name="Gradiente sem nome 4" x1="13964.87" y1="12008.44" x2="14156.86" y2="12008.44" gradientTransform="translate(16348.14 14192.21) rotate(-180)" xlink:href="#Gradiente_sem_nome_4"/>
    <linearGradient id="Gradiente_sem_nome_4-52" data-name="Gradiente sem nome 4" x1="13708.41" y1="12008.59" x2="13888.08" y2="12008.59" gradientTransform="translate(16348.14 14192.21) rotate(-180)" xlink:href="#Gradiente_sem_nome_4"/>
    <linearGradient id="Gradiente_sem_nome_4-53" data-name="Gradiente sem nome 4" x1="13451.95" y1="12008.73" x2="13619.29" y2="12008.73" gradientTransform="translate(16348.14 14192.21) rotate(-180)" xlink:href="#Gradiente_sem_nome_4"/>
    <linearGradient id="Gradiente_sem_nome_4-54" data-name="Gradiente sem nome 4" y1="12008.88" x2="13350.51" y2="12008.88" gradientTransform="translate(16348.14 14192.21) rotate(-180)" xlink:href="#Gradiente_sem_nome_4"/>
    <linearGradient id="Gradiente_sem_nome_4-55" data-name="Gradiente sem nome 4" x1="15247.17" y1="12336.22" x2="15500.79" y2="12336.22" gradientTransform="translate(16348.14 14192.21) rotate(-180)" xlink:href="#Gradiente_sem_nome_4"/>
    <linearGradient id="Gradiente_sem_nome_4-56" data-name="Gradiente sem nome 4" x1="14990.71" y1="12336.37" x2="15232" y2="12336.37" gradientTransform="translate(16348.14 14192.21) rotate(-180)" xlink:href="#Gradiente_sem_nome_4"/>
    <linearGradient id="Gradiente_sem_nome_4-57" data-name="Gradiente sem nome 4" x1="14734.25" y1="12336.52" x2="14963.22" y2="12336.52" gradientTransform="translate(16348.14 14192.21) rotate(-180)" xlink:href="#Gradiente_sem_nome_4"/>
    <linearGradient id="Gradiente_sem_nome_4-58" data-name="Gradiente sem nome 4" x1="14477.79" y1="12336.66" x2="14694.43" y2="12336.66" gradientTransform="translate(16348.14 14192.21) rotate(-180)" xlink:href="#Gradiente_sem_nome_4"/>
    <linearGradient id="Gradiente_sem_nome_4-59" data-name="Gradiente sem nome 4" x1="14221.33" y1="12336.81" x2="14425.65" y2="12336.81" gradientTransform="translate(16348.14 14192.21) rotate(-180)" xlink:href="#Gradiente_sem_nome_4"/>
    <linearGradient id="Gradiente_sem_nome_4-60" data-name="Gradiente sem nome 4" x1="13964.87" y1="12336.95" x2="14156.86" y2="12336.95" gradientTransform="translate(16348.14 14192.21) rotate(-180)" xlink:href="#Gradiente_sem_nome_4"/>
    <linearGradient id="Gradiente_sem_nome_4-61" data-name="Gradiente sem nome 4" x1="13708.41" y1="12337.1" x2="13888.08" y2="12337.1" gradientTransform="translate(16348.14 14192.21) rotate(-180)" xlink:href="#Gradiente_sem_nome_4"/>
    <linearGradient id="Gradiente_sem_nome_4-62" data-name="Gradiente sem nome 4" x1="13451.95" y1="12337.24" x2="13619.29" y2="12337.24" gradientTransform="translate(16348.14 14192.21) rotate(-180)" xlink:href="#Gradiente_sem_nome_4"/>
    <linearGradient id="Gradiente_sem_nome_4-63" data-name="Gradiente sem nome 4" y1="12337.39" x2="13350.51" y2="12337.39" gradientTransform="translate(16348.14 14192.21) rotate(-180)" xlink:href="#Gradiente_sem_nome_4"/>
    <linearGradient id="Gradiente_sem_nome_4-64" data-name="Gradiente sem nome 4" x1="15247.17" y1="12659.67" x2="15500.79" y2="12659.67" gradientTransform="translate(16348.14 14192.21) rotate(-180)" xlink:href="#Gradiente_sem_nome_4"/>
    <linearGradient id="Gradiente_sem_nome_4-65" data-name="Gradiente sem nome 4" x1="14990.71" y1="12659.82" x2="15232" y2="12659.82" gradientTransform="translate(16348.14 14192.21) rotate(-180)" xlink:href="#Gradiente_sem_nome_4"/>
    <linearGradient id="Gradiente_sem_nome_4-66" data-name="Gradiente sem nome 4" x1="14734.25" y1="12659.96" x2="14963.22" y2="12659.96" gradientTransform="translate(16348.14 14192.21) rotate(-180)" xlink:href="#Gradiente_sem_nome_4"/>
    <linearGradient id="Gradiente_sem_nome_4-67" data-name="Gradiente sem nome 4" x1="14477.79" y1="12660.11" x2="14694.43" y2="12660.11" gradientTransform="translate(16348.14 14192.21) rotate(-180)" xlink:href="#Gradiente_sem_nome_4"/>
    <linearGradient id="Gradiente_sem_nome_4-68" data-name="Gradiente sem nome 4" x1="14221.33" y1="12660.25" x2="14425.65" y2="12660.25" gradientTransform="translate(16348.14 14192.21) rotate(-180)" xlink:href="#Gradiente_sem_nome_4"/>
    <linearGradient id="Gradiente_sem_nome_4-69" data-name="Gradiente sem nome 4" x1="13964.87" y1="12660.4" x2="14156.86" y2="12660.4" gradientTransform="translate(16348.14 14192.21) rotate(-180)" xlink:href="#Gradiente_sem_nome_4"/>
    <linearGradient id="Gradiente_sem_nome_4-70" data-name="Gradiente sem nome 4" x1="13708.41" y1="12660.54" x2="13888.08" y2="12660.54" gradientTransform="translate(16348.14 14192.21) rotate(-180)" xlink:href="#Gradiente_sem_nome_4"/>
    <linearGradient id="Gradiente_sem_nome_4-71" data-name="Gradiente sem nome 4" x1="13451.95" y1="12660.69" x2="13619.29" y2="12660.69" gradientTransform="translate(16348.14 14192.21) rotate(-180)" xlink:href="#Gradiente_sem_nome_4"/>
    <linearGradient id="Gradiente_sem_nome_4-72" data-name="Gradiente sem nome 4" y1="12660.84" x2="13350.51" y2="12660.84" gradientTransform="translate(16348.14 14192.21) rotate(-180)" xlink:href="#Gradiente_sem_nome_4"/>
    <linearGradient id="Gradiente_sem_nome_4-73" data-name="Gradiente sem nome 4" x1="15247.17" y1="12982.5" x2="15500.79" y2="12982.5" gradientTransform="translate(16348.14 14192.21) rotate(-180)" xlink:href="#Gradiente_sem_nome_4"/>
    <linearGradient id="Gradiente_sem_nome_4-74" data-name="Gradiente sem nome 4" x1="14990.71" y1="12982.64" x2="15232" y2="12982.64" gradientTransform="translate(16348.14 14192.21) rotate(-180)" xlink:href="#Gradiente_sem_nome_4"/>
    <linearGradient id="Gradiente_sem_nome_4-75" data-name="Gradiente sem nome 4" x1="14734.25" y1="12982.79" x2="14963.22" y2="12982.79" gradientTransform="translate(16348.14 14192.21) rotate(-180)" xlink:href="#Gradiente_sem_nome_4"/>
    <linearGradient id="Gradiente_sem_nome_4-76" data-name="Gradiente sem nome 4" x1="14477.79" y1="12982.93" x2="14694.43" y2="12982.93" gradientTransform="translate(16348.14 14192.21) rotate(-180)" xlink:href="#Gradiente_sem_nome_4"/>
    <linearGradient id="Gradiente_sem_nome_4-77" data-name="Gradiente sem nome 4" x1="14221.33" y1="12983.08" x2="14425.65" y2="12983.08" gradientTransform="translate(16348.14 14192.21) rotate(-180)" xlink:href="#Gradiente_sem_nome_4"/>
    <linearGradient id="Gradiente_sem_nome_4-78" data-name="Gradiente sem nome 4" x1="13964.87" y1="12983.23" x2="14156.86" y2="12983.23" gradientTransform="translate(16348.14 14192.21) rotate(-180)" xlink:href="#Gradiente_sem_nome_4"/>
    <linearGradient id="Gradiente_sem_nome_4-79" data-name="Gradiente sem nome 4" x1="13708.41" y1="12983.37" x2="13888.08" y2="12983.37" gradientTransform="translate(16348.14 14192.21) rotate(-180)" xlink:href="#Gradiente_sem_nome_4"/>
    <linearGradient id="Gradiente_sem_nome_4-80" data-name="Gradiente sem nome 4" x1="13451.95" y1="12983.52" x2="13619.29" y2="12983.52" gradientTransform="translate(16348.14 14192.21) rotate(-180)" xlink:href="#Gradiente_sem_nome_4"/>
    <linearGradient id="Gradiente_sem_nome_4-81" data-name="Gradiente sem nome 4" y1="12983.66" x2="13350.51" y2="12983.66" gradientTransform="translate(16348.14 14192.21) rotate(-180)" xlink:href="#Gradiente_sem_nome_4"/>
  </defs>
  <g id="Camada_1-2" data-name="Camada 1">
    <g>
      <rect width="4000" height="5000"/>
      <g>
        <g>
          <polygon class="cls-1" points="3009.14 3950.31 3152.65 3950.31 3042.53 3630.26 2899.03 3630.26 3009.14 3950.31"/>
          <polygon class="cls-9" points="2757.03 3950.02 2883.86 3948.76 2769.39 3630.26 2642.57 3631.52 2757.03 3950.02"/>
          <polygon class="cls-2" points="2504.93 3949.73 2615.08 3947.21 2496.25 3630.26 2386.11 3632.78 2504.93 3949.73"/>
          <polygon class="cls-4" points="2252.83 3949.44 2346.29 3945.67 2223.11 3630.26 2129.65 3634.04 2252.83 3949.44"/>
          <polygon class="cls-6" points="2000.72 3949.15 2077.51 3944.12 1949.97 3630.26 1873.19 3635.29 2000.72 3949.15"/>
          <polygon class="cls-3" points="1748.62 3948.86 1808.72 3942.57 1676.83 3630.26 1616.73 3636.55 1748.62 3948.86"/>
          <polygon class="cls-8" points="1496.51 3948.57 1539.94 3941.02 1403.69 3630.26 1360.27 3637.81 1496.51 3948.57"/>
          <polygon class="cls-7" points="1244.41 3948.28 1271.15 3939.47 1130.55 3630.26 1103.81 3639.07 1244.41 3948.28"/>
          <polygon class="cls-5" points="992.31 3947.99 1002.37 3937.93 857.41 3630.26 847.35 3640.32 992.31 3947.99"/>
        </g>
        <g>
          <polygon class="cls-29" points="3009.14 3626.86 3152.65 3626.86 3042.53 3306.82 2899.03 3306.82 3009.14 3626.86"/>
          <polygon class="cls-23" points="2757.03 3626.57 2883.86 3625.31 2769.39 3306.82 2642.57 3308.07 2757.03 3626.57"/>
          <polygon class="cls-44" points="2504.93 3626.28 2615.08 3623.77 2496.25 3306.82 2386.11 3309.33 2504.93 3626.28"/>
          <polygon class="cls-22" points="2252.83 3625.99 2346.29 3622.22 2223.11 3306.82 2129.65 3310.59 2252.83 3625.99"/>
          <polygon class="cls-21" points="2000.72 3625.7 2077.51 3620.67 1949.97 3306.82 1873.19 3311.85 2000.72 3625.7"/>
          <polygon class="cls-24" points="1748.62 3625.41 1808.72 3619.12 1676.83 3306.82 1616.73 3313.1 1748.62 3625.41"/>
          <polygon class="cls-28" points="1496.51 3625.12 1539.94 3617.57 1403.69 3306.82 1360.27 3314.36 1496.51 3625.12"/>
          <polygon class="cls-26" points="1244.41 3624.83 1271.15 3616.03 1130.55 3306.82 1103.81 3315.62 1244.41 3624.83"/>
          <polygon class="cls-25" points="992.31 3624.54 1002.37 3614.48 857.41 3306.82 847.35 3316.88 992.31 3624.54"/>
        </g>
        <g>
          <polygon class="cls-27" points="3009.14 3309.14 3152.65 3309.14 3042.53 2989.09 2899.03 2989.09 3009.14 3309.14"/>
          <polygon class="cls-20" points="2757.03 3308.85 2883.86 3307.59 2769.39 2989.09 2642.57 2990.35 2757.03 3308.85"/>
          <polygon class="cls-53" points="2504.93 3308.56 2615.08 3306.04 2496.25 2989.09 2386.11 2991.61 2504.93 3308.56"/>
          <polygon class="cls-54" points="2252.83 3308.27 2346.29 3304.5 2223.11 2989.09 2129.65 2992.87 2252.83 3308.27"/>
          <polygon class="cls-56" points="2000.72 3307.98 2077.51 3302.95 1949.97 2989.09 1873.19 2994.12 2000.72 3307.98"/>
          <polygon class="cls-57" points="1748.62 3307.69 1808.72 3301.4 1676.83 2989.09 1616.73 2995.38 1748.62 3307.69"/>
          <polygon class="cls-59" points="1496.51 3307.4 1539.94 3299.85 1403.69 2989.09 1360.27 2996.64 1496.51 3307.4"/>
          <polygon class="cls-55" points="1244.41 3307.11 1271.15 3298.3 1130.55 2989.09 1103.81 2997.9 1244.41 3307.11"/>
          <polygon class="cls-60" points="992.31 3306.82 1002.37 3296.76 857.41 2989.09 847.35 2999.15 992.31 3306.82"/>
        </g>
        <g>
          <polygon class="cls-58" points="3009.14 2985.69 3152.65 2985.69 3042.53 2665.65 2899.03 2665.65 3009.14 2985.69"/>
          <polygon class="cls-61" points="2757.03 2985.4 2883.86 2984.14 2769.39 2665.65 2642.57 2666.9 2757.03 2985.4"/>
          <polygon class="cls-74" points="2504.93 2985.11 2615.08 2982.6 2496.25 2665.65 2386.11 2668.16 2504.93 2985.11"/>
          <polygon class="cls-75" points="2252.83 2984.82 2346.29 2981.05 2223.11 2665.65 2129.65 2669.42 2252.83 2984.82"/>
          <polygon class="cls-73" points="2000.72 2984.53 2077.51 2979.5 1949.97 2665.65 1873.19 2670.68 2000.72 2984.53"/>
          <polygon class="cls-78" points="1748.62 2984.24 1808.72 2977.95 1676.83 2665.65 1616.73 2671.93 1748.62 2984.24"/>
          <polygon class="cls-80" points="1496.51 2983.95 1539.94 2976.4 1403.69 2665.65 1360.27 2673.19 1496.51 2983.95"/>
          <polygon class="cls-81" points="1244.41 2983.66 1271.15 2974.85 1130.55 2665.65 1103.81 2674.45 1244.41 2983.66"/>
          <polygon class="cls-79" points="992.31 2983.37 1002.37 2973.31 857.41 2665.65 847.35 2675.71 992.31 2983.37"/>
        </g>
        <g>
          <polygon class="cls-70" points="990.86 2667.97 847.35 2667.97 957.47 2347.92 1100.97 2347.92 990.86 2667.97"/>
          <polygon class="cls-77" points="1242.97 2667.68 1116.14 2666.42 1230.61 2347.92 1357.43 2349.18 1242.97 2667.68"/>
          <polygon class="cls-76" points="1495.07 2667.39 1384.92 2664.87 1503.75 2347.92 1613.89 2350.44 1495.07 2667.39"/>
          <polygon class="cls-45" points="1747.17 2667.1 1653.71 2663.33 1776.89 2347.92 1870.35 2351.7 1747.17 2667.1"/>
          <polygon class="cls-31" points="1999.28 2666.81 1922.49 2661.78 2050.03 2347.92 2126.81 2352.95 1999.28 2666.81"/>
          <polygon class="cls-30" points="2251.38 2666.52 2191.28 2660.23 2323.17 2347.92 2383.27 2354.21 2251.38 2666.52"/>
          <polygon class="cls-46" points="2503.49 2666.23 2460.06 2658.68 2596.31 2347.92 2639.73 2355.47 2503.49 2666.23"/>
          <polygon class="cls-52" points="2755.59 2665.94 2728.85 2657.13 2869.45 2347.92 2896.19 2356.73 2755.59 2665.94"/>
          <polygon class="cls-47" points="3007.69 2665.65 2997.63 2655.59 3142.59 2347.92 3152.65 2357.98 3007.69 2665.65"/>
        </g>
        <g>
          <polygon class="cls-50" points="990.86 2344.52 847.35 2344.52 957.47 2024.48 1100.97 2024.48 990.86 2344.52"/>
          <polygon class="cls-49" points="1242.97 2344.23 1116.14 2342.97 1230.61 2024.48 1357.43 2025.73 1242.97 2344.23"/>
          <polygon class="cls-48" points="1495.07 2343.94 1384.92 2341.43 1503.75 2024.48 1613.89 2026.99 1495.07 2343.94"/>
          <polygon class="cls-51" points="1747.17 2343.65 1653.71 2339.88 1776.89 2024.48 1870.35 2028.25 1747.17 2343.65"/>
          <polygon class="cls-36" points="1999.28 2343.36 1922.49 2338.33 2050.03 2024.48 2126.81 2029.51 1999.28 2343.36"/>
          <polygon class="cls-33" points="2251.38 2343.07 2191.28 2336.78 2323.17 2024.48 2383.27 2030.76 2251.38 2343.07"/>
          <polygon class="cls-34" points="2503.49 2342.78 2460.06 2335.23 2596.31 2024.48 2639.73 2032.02 2503.49 2342.78"/>
          <polygon class="cls-32" points="2755.59 2342.49 2728.85 2333.68 2869.45 2024.48 2896.19 2033.28 2755.59 2342.49"/>
          <polygon class="cls-39" points="3007.69 2342.2 2997.63 2332.14 3142.59 2024.48 3152.65 2034.54 3007.69 2342.2"/>
        </g>
        <g>
          <polygon class="cls-35" points="990.86 2016.01 847.35 2016.01 957.47 1695.96 1100.97 1695.96 990.86 2016.01"/>
          <polygon class="cls-41" points="1242.97 2015.72 1116.14 2014.46 1230.61 1695.96 1357.43 1697.22 1242.97 2015.72"/>
          <polygon class="cls-40" points="1495.07 2015.43 1384.92 2012.91 1503.75 1695.96 1613.89 1698.48 1495.07 2015.43"/>
          <polygon class="cls-43" points="1747.17 2015.14 1653.71 2011.37 1776.89 1695.96 1870.35 1699.74 1747.17 2015.14"/>
          <polygon class="cls-42" points="1999.28 2014.85 1922.49 2009.82 2050.03 1695.96 2126.81 1700.99 1999.28 2014.85"/>
          <polygon class="cls-69" points="2251.38 2014.56 2191.28 2008.27 2323.17 1695.96 2383.27 1702.25 2251.38 2014.56"/>
          <polygon class="cls-67" points="2503.49 2014.27 2460.06 2006.72 2596.31 1695.96 2639.73 1703.51 2503.49 2014.27"/>
          <polygon class="cls-62" points="2755.59 2013.98 2728.85 2005.17 2869.45 1695.96 2896.19 1704.77 2755.59 2013.98"/>
          <polygon class="cls-64" points="3007.69 2013.69 2997.63 2003.63 3142.59 1695.96 3152.65 1706.02 3007.69 2013.69"/>
        </g>
        <g>
          <polygon class="cls-65" points="990.86 1692.56 847.35 1692.56 957.47 1372.52 1100.97 1372.52 990.86 1692.56"/>
          <polygon class="cls-68" points="1242.97 1692.27 1116.14 1691.01 1230.61 1372.52 1357.43 1373.77 1242.97 1692.27"/>
          <polygon class="cls-63" points="1495.07 1691.98 1384.92 1689.47 1503.75 1372.52 1613.89 1375.03 1495.07 1691.98"/>
          <polygon class="cls-66" points="1747.17 1691.69 1653.71 1687.92 1776.89 1372.52 1870.35 1376.29 1747.17 1691.69"/>
          <polygon class="cls-72" points="1999.28 1691.4 1922.49 1686.37 2050.03 1372.52 2126.81 1377.55 1999.28 1691.4"/>
          <polygon class="cls-71" points="2251.38 1691.11 2191.28 1684.82 2323.17 1372.52 2383.27 1378.8 2251.38 1691.11"/>
          <polygon class="cls-10" points="2503.49 1690.82 2460.06 1683.27 2596.31 1372.52 2639.73 1380.06 2503.49 1690.82"/>
          <polygon class="cls-11" points="2755.59 1690.53 2728.85 1681.72 2869.45 1372.52 2896.19 1381.32 2755.59 1690.53"/>
          <polygon class="cls-18" points="3007.69 1690.24 2997.63 1680.18 3142.59 1372.52 3152.65 1382.58 3007.69 1690.24"/>
        </g>
        <g>
          <polygon class="cls-19" points="990.86 1369.74 847.35 1369.74 957.47 1049.69 1100.97 1049.69 990.86 1369.74"/>
          <polygon class="cls-16" points="1242.97 1369.45 1116.14 1368.19 1230.61 1049.69 1357.43 1050.95 1242.97 1369.45"/>
          <polygon class="cls-17" points="1495.07 1369.15 1384.92 1366.64 1503.75 1049.69 1613.89 1052.2 1495.07 1369.15"/>
          <polygon class="cls-14" points="1747.17 1368.86 1653.71 1365.09 1776.89 1049.69 1870.35 1053.46 1747.17 1368.86"/>
          <polygon class="cls-12" points="1999.28 1368.57 1922.49 1363.54 2050.03 1049.69 2126.81 1054.72 1999.28 1368.57"/>
          <polygon class="cls-15" points="2251.38 1368.28 2191.28 1362 2323.17 1049.69 2383.27 1055.98 2251.38 1368.28"/>
          <polygon class="cls-13" points="2503.49 1367.99 2460.06 1360.45 2596.31 1049.69 2639.73 1057.23 2503.49 1367.99"/>
          <polygon class="cls-37" points="2755.59 1367.7 2728.85 1358.9 2869.45 1049.69 2896.19 1058.49 2755.59 1367.7"/>
          <polygon class="cls-38" points="3007.69 1367.41 2997.63 1357.35 3142.59 1049.69 3152.65 1059.75 3007.69 1367.41"/>
        </g>
      </g>
    </g>
  </g>
</svg>