<svg width="136" height="48" viewBox="0 0 136 48" fill="none" xmlns="http://www.w3.org/2000/svg">
<path d="M19.296 13.928C22.432 13.928 24.928 14.952 26.784 17C28.672 19.016 29.616 21.8 29.616 25.352V41H21.456V26.456C21.456 24.664 20.992 23.272 20.064 22.28C19.136 21.288 17.888 20.792 16.32 20.792C14.752 20.792 13.504 21.288 12.576 22.28C11.648 23.272 11.184 24.664 11.184 26.456V41H2.976V14.216H11.184V17.768C12.016 16.584 13.136 15.656 14.544 14.984C15.952 14.28 17.536 13.928 19.296 13.928ZM39.4478 11.432C38.0078 11.432 36.8238 11.016 35.8958 10.184C34.9998 9.32 34.5518 8.264 34.5518 7.016C34.5518 5.736 34.9998 4.68 35.8958 3.848C36.8238 2.984 38.0078 2.552 39.4478 2.552C40.8558 2.552 42.0078 2.984 42.9038 3.848C43.8318 4.68 44.2958 5.736 44.2958 7.016C44.2958 8.264 43.8318 9.32 42.9038 10.184C42.0078 11.016 40.8558 11.432 39.4478 11.432ZM43.5278 14.216V41H35.3198V14.216H43.5278Z" fill="#1F1F1F"/>
<path d="M52.2431 15.9299C49.9 13.5868 49.9 9.78776 52.2431 7.44462C54.5863 5.10147 58.3853 5.10147 60.7284 7.44462L63.5568 10.273C65.9 12.6162 65.9 16.4152 63.5568 18.7583L59.3142 23.001L52.2431 15.9299Z" fill="#2776EC"/>
<path d="M60.7284 40.5573C58.3853 42.9004 54.5863 42.9004 52.2431 40.5573C49.9 38.2141 49.9 34.4152 52.2431 32.072L59.3142 25.0009L63.5568 29.2436C65.9 31.5867 65.9 35.3857 63.5568 37.7289L60.7284 40.5573Z" fill="#2776EC"/>
<path d="M72.8714 7.44454C75.2146 5.1014 79.0136 5.1014 81.3567 7.44454C83.6999 9.78769 83.6999 13.5867 81.3567 15.9298L74.2856 23.0009L70.043 18.7583C67.6999 16.4151 67.6999 12.6161 70.043 10.273L72.8714 7.44454Z" fill="#2776EC"/>
<path d="M81.3567 32.0721C83.6999 34.4152 83.6999 38.2142 81.3567 40.5573C79.0136 42.9005 75.2146 42.9005 72.8714 40.5573L70.043 37.7289C67.6999 35.3858 67.6999 31.5868 70.043 29.2436L74.2857 25.001L81.3567 32.0721Z" fill="#2776EC"/>
<path d="M113.822 27.176C113.822 27.944 113.774 28.744 113.678 29.576H95.1019C95.2299 31.24 95.7579 32.52 96.6859 33.416C97.6459 34.28 98.8139 34.712 100.19 34.712C102.238 34.712 103.662 33.848 104.462 32.12H113.198C112.75 33.88 111.934 35.464 110.75 36.872C109.598 38.28 108.142 39.384 106.382 40.184C104.622 40.984 102.654 41.384 100.478 41.384C97.8539 41.384 95.5179 40.824 93.4699 39.704C91.4219 38.584 89.8219 36.984 88.6699 34.904C87.5179 32.824 86.9419 30.392 86.9419 27.608C86.9419 24.824 87.5019 22.392 88.6219 20.312C89.7739 18.232 91.3739 16.632 93.4219 15.512C95.4699 14.392 97.8219 13.832 100.478 13.832C103.07 13.832 105.374 14.376 107.39 15.464C109.406 16.552 110.974 18.104 112.094 20.12C113.246 22.136 113.822 24.488 113.822 27.176ZM105.422 25.016C105.422 23.608 104.942 22.488 103.982 21.656C103.022 20.824 101.822 20.408 100.382 20.408C99.0059 20.408 97.8379 20.808 96.8779 21.608C95.9499 22.408 95.3739 23.544 95.1499 25.016H105.422ZM133.08 34.04V41H128.904C125.928 41 123.608 40.28 121.944 38.84C120.28 37.368 119.448 34.984 119.448 31.688V21.032H116.184V14.216H119.448V7.688H127.656V14.216H133.032V21.032H127.656V31.784C127.656 32.584 127.848 33.16 128.232 33.512C128.616 33.864 129.256 34.04 130.152 34.04H133.08Z" fill="#1F1F1F"/>
</svg>
