<svg xmlns="http://www.w3.org/2000/svg" width="66" height="66" viewBox="0 0 24 24" class="duoicon duoicon-smartphone" style="color: rgb(99, 102, 241);"><path fill="currentColor" d="M17 2a2 2 0 0 1 1.995 1.85L19 4v16a2 2 0 0 1-1.85 1.995L17 22H7a2 2 0 0 1-1.995-1.85L5 20V4a2 2 0 0 1 1.85-1.995L7 2h10Z" class="duoicon-secondary-layer" opacity=".3"></path><path fill="currentColor" d="M12.5 16h-1a.5.5 0 0 0-.5.5v1a.5.5 0 0 0 .5.5h1a.5.5 0 0 0 .5-.5v-1a.5.5 0 0 0-.5-.5Z" class="duoicon-primary-layer"></path></svg>